G04 #@! TF.GenerationSoftware,KiCad,Pcbnew,5.1.5-52549c5~84~ubuntu18.04.1*
G04 #@! TF.CreationDate,2019-11-19T18:32:17+01:00*
G04 #@! TF.ProjectId,darkroom_tracker,6461726b-726f-46f6-9d5f-747261636b65,rev?*
G04 #@! TF.SameCoordinates,Original*
G04 #@! TF.FileFunction,Soldermask,Bot*
G04 #@! TF.FilePolarity,Negative*
%FSLAX46Y46*%
G04 Gerber Fmt 4.6, Leading zero omitted, Abs format (unit mm)*
G04 Created by KiCad (PCBNEW 5.1.5-52549c5~84~ubuntu18.04.1) date 2019-11-19 18:32:17*
%MOMM*%
%LPD*%
G04 APERTURE LIST*
%ADD10C,0.100000*%
G04 APERTURE END LIST*
D10*
G36*
X145651755Y-119100546D02*
G01*
X145824826Y-119172234D01*
X145902178Y-119223919D01*
X145980587Y-119276310D01*
X146113050Y-119408773D01*
X146113051Y-119408775D01*
X146217126Y-119564534D01*
X146288814Y-119737605D01*
X146325360Y-119921333D01*
X146325360Y-120108667D01*
X146288814Y-120292395D01*
X146217126Y-120465466D01*
X146217125Y-120465467D01*
X146113050Y-120621227D01*
X145980587Y-120753690D01*
X145902178Y-120806081D01*
X145824826Y-120857766D01*
X145651755Y-120929454D01*
X145468027Y-120966000D01*
X145280693Y-120966000D01*
X145096965Y-120929454D01*
X144923894Y-120857766D01*
X144846542Y-120806081D01*
X144768133Y-120753690D01*
X144635670Y-120621227D01*
X144531595Y-120465467D01*
X144531594Y-120465466D01*
X144459906Y-120292395D01*
X144423360Y-120108667D01*
X144423360Y-119921333D01*
X144459906Y-119737605D01*
X144531594Y-119564534D01*
X144635669Y-119408775D01*
X144635670Y-119408773D01*
X144768133Y-119276310D01*
X144846542Y-119223919D01*
X144923894Y-119172234D01*
X145096965Y-119100546D01*
X145280693Y-119064000D01*
X145468027Y-119064000D01*
X145651755Y-119100546D01*
G37*
G36*
X120520995Y-119100546D02*
G01*
X120694066Y-119172234D01*
X120771418Y-119223919D01*
X120849827Y-119276310D01*
X120982290Y-119408773D01*
X120982291Y-119408775D01*
X121086366Y-119564534D01*
X121158054Y-119737605D01*
X121194600Y-119921333D01*
X121194600Y-120108667D01*
X121158054Y-120292395D01*
X121086366Y-120465466D01*
X121086365Y-120465467D01*
X120982290Y-120621227D01*
X120849827Y-120753690D01*
X120771418Y-120806081D01*
X120694066Y-120857766D01*
X120520995Y-120929454D01*
X120337267Y-120966000D01*
X120149933Y-120966000D01*
X119966205Y-120929454D01*
X119793134Y-120857766D01*
X119715782Y-120806081D01*
X119637373Y-120753690D01*
X119504910Y-120621227D01*
X119400835Y-120465467D01*
X119400834Y-120465466D01*
X119329146Y-120292395D01*
X119292600Y-120108667D01*
X119292600Y-119921333D01*
X119329146Y-119737605D01*
X119400834Y-119564534D01*
X119504909Y-119408775D01*
X119504910Y-119408773D01*
X119637373Y-119276310D01*
X119715782Y-119223919D01*
X119793134Y-119172234D01*
X119966205Y-119100546D01*
X120149933Y-119064000D01*
X120337267Y-119064000D01*
X120520995Y-119100546D01*
G37*
G36*
X117980995Y-117830546D02*
G01*
X118154066Y-117902234D01*
X118231418Y-117953919D01*
X118309827Y-118006310D01*
X118442290Y-118138773D01*
X118442291Y-118138775D01*
X118546366Y-118294534D01*
X118618054Y-118467605D01*
X118654600Y-118651333D01*
X118654600Y-118838667D01*
X118618054Y-119022395D01*
X118546366Y-119195466D01*
X118546365Y-119195467D01*
X118442290Y-119351227D01*
X118309827Y-119483690D01*
X118231418Y-119536081D01*
X118154066Y-119587766D01*
X117980995Y-119659454D01*
X117797267Y-119696000D01*
X117609933Y-119696000D01*
X117426205Y-119659454D01*
X117253134Y-119587766D01*
X117175782Y-119536081D01*
X117097373Y-119483690D01*
X116964910Y-119351227D01*
X116860835Y-119195467D01*
X116860834Y-119195466D01*
X116789146Y-119022395D01*
X116752600Y-118838667D01*
X116752600Y-118651333D01*
X116789146Y-118467605D01*
X116860834Y-118294534D01*
X116964909Y-118138775D01*
X116964910Y-118138773D01*
X117097373Y-118006310D01*
X117175782Y-117953919D01*
X117253134Y-117902234D01*
X117426205Y-117830546D01*
X117609933Y-117794000D01*
X117797267Y-117794000D01*
X117980995Y-117830546D01*
G37*
G36*
X143111755Y-117830546D02*
G01*
X143284826Y-117902234D01*
X143362178Y-117953919D01*
X143440587Y-118006310D01*
X143573050Y-118138773D01*
X143573051Y-118138775D01*
X143677126Y-118294534D01*
X143748814Y-118467605D01*
X143785360Y-118651333D01*
X143785360Y-118838667D01*
X143748814Y-119022395D01*
X143677126Y-119195466D01*
X143677125Y-119195467D01*
X143573050Y-119351227D01*
X143440587Y-119483690D01*
X143362178Y-119536081D01*
X143284826Y-119587766D01*
X143111755Y-119659454D01*
X142928027Y-119696000D01*
X142740693Y-119696000D01*
X142556965Y-119659454D01*
X142383894Y-119587766D01*
X142306542Y-119536081D01*
X142228133Y-119483690D01*
X142095670Y-119351227D01*
X141991595Y-119195467D01*
X141991594Y-119195466D01*
X141919906Y-119022395D01*
X141883360Y-118838667D01*
X141883360Y-118651333D01*
X141919906Y-118467605D01*
X141991594Y-118294534D01*
X142095669Y-118138775D01*
X142095670Y-118138773D01*
X142228133Y-118006310D01*
X142306542Y-117953919D01*
X142383894Y-117902234D01*
X142556965Y-117830546D01*
X142740693Y-117794000D01*
X142928027Y-117794000D01*
X143111755Y-117830546D01*
G37*
G36*
X145651755Y-116560546D02*
G01*
X145824826Y-116632234D01*
X145824827Y-116632235D01*
X145980587Y-116736310D01*
X146113050Y-116868773D01*
X146113051Y-116868775D01*
X146217126Y-117024534D01*
X146288814Y-117197605D01*
X146325360Y-117381333D01*
X146325360Y-117568667D01*
X146288814Y-117752395D01*
X146217126Y-117925466D01*
X146217125Y-117925467D01*
X146113050Y-118081227D01*
X145980587Y-118213690D01*
X145902178Y-118266081D01*
X145824826Y-118317766D01*
X145651755Y-118389454D01*
X145468027Y-118426000D01*
X145280693Y-118426000D01*
X145096965Y-118389454D01*
X144923894Y-118317766D01*
X144846542Y-118266081D01*
X144768133Y-118213690D01*
X144635670Y-118081227D01*
X144531595Y-117925467D01*
X144531594Y-117925466D01*
X144459906Y-117752395D01*
X144423360Y-117568667D01*
X144423360Y-117381333D01*
X144459906Y-117197605D01*
X144531594Y-117024534D01*
X144635669Y-116868775D01*
X144635670Y-116868773D01*
X144768133Y-116736310D01*
X144923893Y-116632235D01*
X144923894Y-116632234D01*
X145096965Y-116560546D01*
X145280693Y-116524000D01*
X145468027Y-116524000D01*
X145651755Y-116560546D01*
G37*
G36*
X120520995Y-116560546D02*
G01*
X120694066Y-116632234D01*
X120694067Y-116632235D01*
X120849827Y-116736310D01*
X120982290Y-116868773D01*
X120982291Y-116868775D01*
X121086366Y-117024534D01*
X121158054Y-117197605D01*
X121194600Y-117381333D01*
X121194600Y-117568667D01*
X121158054Y-117752395D01*
X121086366Y-117925466D01*
X121086365Y-117925467D01*
X120982290Y-118081227D01*
X120849827Y-118213690D01*
X120771418Y-118266081D01*
X120694066Y-118317766D01*
X120520995Y-118389454D01*
X120337267Y-118426000D01*
X120149933Y-118426000D01*
X119966205Y-118389454D01*
X119793134Y-118317766D01*
X119715782Y-118266081D01*
X119637373Y-118213690D01*
X119504910Y-118081227D01*
X119400835Y-117925467D01*
X119400834Y-117925466D01*
X119329146Y-117752395D01*
X119292600Y-117568667D01*
X119292600Y-117381333D01*
X119329146Y-117197605D01*
X119400834Y-117024534D01*
X119504909Y-116868775D01*
X119504910Y-116868773D01*
X119637373Y-116736310D01*
X119793133Y-116632235D01*
X119793134Y-116632234D01*
X119966205Y-116560546D01*
X120149933Y-116524000D01*
X120337267Y-116524000D01*
X120520995Y-116560546D01*
G37*
G36*
X138588347Y-115363915D02*
G01*
X138735734Y-115393232D01*
X138945203Y-115479997D01*
X139133720Y-115605960D01*
X139294040Y-115766280D01*
X139420003Y-115954797D01*
X139420004Y-115954799D01*
X139506768Y-116164267D01*
X139551000Y-116386635D01*
X139551000Y-116613365D01*
X139528884Y-116724549D01*
X139506768Y-116835734D01*
X139493082Y-116868775D01*
X139428565Y-117024534D01*
X139420003Y-117045203D01*
X139294040Y-117233720D01*
X139133720Y-117394040D01*
X138945203Y-117520003D01*
X138735734Y-117606768D01*
X138624549Y-117628884D01*
X138513365Y-117651000D01*
X138286635Y-117651000D01*
X138175451Y-117628884D01*
X138064266Y-117606768D01*
X137854797Y-117520003D01*
X137666280Y-117394040D01*
X137505960Y-117233720D01*
X137379997Y-117045203D01*
X137371436Y-117024534D01*
X137306918Y-116868775D01*
X137293232Y-116835734D01*
X137271116Y-116724549D01*
X137249000Y-116613365D01*
X137249000Y-116386635D01*
X137293232Y-116164267D01*
X137379996Y-115954799D01*
X137379997Y-115954797D01*
X137505960Y-115766280D01*
X137666280Y-115605960D01*
X137854797Y-115479997D01*
X138064266Y-115393232D01*
X138211653Y-115363915D01*
X138286635Y-115349000D01*
X138513365Y-115349000D01*
X138588347Y-115363915D01*
G37*
G36*
X144868017Y-114034733D02*
G01*
X145013798Y-114095118D01*
X145013799Y-114095119D01*
X145145000Y-114182784D01*
X145256576Y-114294360D01*
X145256577Y-114294362D01*
X145344242Y-114425562D01*
X145404627Y-114571343D01*
X145435410Y-114726102D01*
X145435410Y-114883898D01*
X145404627Y-115038657D01*
X145344242Y-115184438D01*
X145344241Y-115184439D01*
X145256576Y-115315640D01*
X145145000Y-115427216D01*
X145078954Y-115471346D01*
X145013798Y-115514882D01*
X144868017Y-115575267D01*
X144713258Y-115606050D01*
X144555462Y-115606050D01*
X144400703Y-115575267D01*
X144254922Y-115514882D01*
X144189766Y-115471346D01*
X144123720Y-115427216D01*
X144012144Y-115315640D01*
X144012142Y-115315637D01*
X144009408Y-115312903D01*
X143998746Y-115299912D01*
X143979804Y-115284367D01*
X143958193Y-115272816D01*
X143934744Y-115265703D01*
X143910358Y-115263301D01*
X143885972Y-115265703D01*
X143862523Y-115272816D01*
X143840913Y-115284367D01*
X143821971Y-115299913D01*
X143806426Y-115318855D01*
X143794875Y-115340466D01*
X143787762Y-115363915D01*
X143785360Y-115388300D01*
X143785360Y-117156000D01*
X141883360Y-117156000D01*
X141883360Y-115254000D01*
X143766217Y-115254000D01*
X143790603Y-115251598D01*
X143814052Y-115244485D01*
X143835663Y-115232934D01*
X143854605Y-115217389D01*
X143870150Y-115198447D01*
X143881701Y-115176836D01*
X143888814Y-115153387D01*
X143891216Y-115129001D01*
X143888814Y-115104615D01*
X143881701Y-115081165D01*
X143864093Y-115038655D01*
X143833310Y-114883898D01*
X143833310Y-114726102D01*
X143864093Y-114571343D01*
X143924478Y-114425562D01*
X144012143Y-114294362D01*
X144012144Y-114294360D01*
X144123720Y-114182784D01*
X144254921Y-114095119D01*
X144254922Y-114095118D01*
X144400703Y-114034733D01*
X144555462Y-114003950D01*
X144713258Y-114003950D01*
X144868017Y-114034733D01*
G37*
G36*
X119737257Y-114034733D02*
G01*
X119883038Y-114095118D01*
X119883039Y-114095119D01*
X120014240Y-114182784D01*
X120125816Y-114294360D01*
X120125817Y-114294362D01*
X120213482Y-114425562D01*
X120273867Y-114571343D01*
X120304650Y-114726102D01*
X120304650Y-114883898D01*
X120273867Y-115038657D01*
X120213482Y-115184438D01*
X120213481Y-115184439D01*
X120125816Y-115315640D01*
X120014240Y-115427216D01*
X119948194Y-115471346D01*
X119883038Y-115514882D01*
X119737257Y-115575267D01*
X119582498Y-115606050D01*
X119424702Y-115606050D01*
X119269943Y-115575267D01*
X119124162Y-115514882D01*
X119059006Y-115471346D01*
X118992960Y-115427216D01*
X118881384Y-115315640D01*
X118881382Y-115315637D01*
X118878648Y-115312903D01*
X118867986Y-115299912D01*
X118849044Y-115284367D01*
X118827433Y-115272816D01*
X118803984Y-115265703D01*
X118779598Y-115263301D01*
X118755212Y-115265703D01*
X118731763Y-115272816D01*
X118710153Y-115284367D01*
X118691211Y-115299913D01*
X118675666Y-115318855D01*
X118664115Y-115340466D01*
X118657002Y-115363915D01*
X118654600Y-115388300D01*
X118654600Y-117156000D01*
X116752600Y-117156000D01*
X116752600Y-115254000D01*
X118635457Y-115254000D01*
X118659843Y-115251598D01*
X118683292Y-115244485D01*
X118704903Y-115232934D01*
X118723845Y-115217389D01*
X118739390Y-115198447D01*
X118750941Y-115176836D01*
X118758054Y-115153387D01*
X118760456Y-115129001D01*
X118758054Y-115104615D01*
X118750941Y-115081165D01*
X118733333Y-115038655D01*
X118702550Y-114883898D01*
X118702550Y-114726102D01*
X118733333Y-114571343D01*
X118793718Y-114425562D01*
X118881383Y-114294362D01*
X118881384Y-114294360D01*
X118992960Y-114182784D01*
X119124161Y-114095119D01*
X119124162Y-114095118D01*
X119269943Y-114034733D01*
X119424702Y-114003950D01*
X119582498Y-114003950D01*
X119737257Y-114034733D01*
G37*
G36*
X145631435Y-110428986D02*
G01*
X145804506Y-110500674D01*
X145881858Y-110552359D01*
X145960267Y-110604750D01*
X146092730Y-110737213D01*
X146092731Y-110737215D01*
X146196806Y-110892974D01*
X146268494Y-111066045D01*
X146305040Y-111249773D01*
X146305040Y-111437107D01*
X146268494Y-111620835D01*
X146196806Y-111793906D01*
X146196805Y-111793907D01*
X146092730Y-111949667D01*
X145960267Y-112082130D01*
X145881858Y-112134521D01*
X145804506Y-112186206D01*
X145631435Y-112257894D01*
X145447707Y-112294440D01*
X145260373Y-112294440D01*
X145076645Y-112257894D01*
X144903574Y-112186206D01*
X144826222Y-112134521D01*
X144747813Y-112082130D01*
X144615350Y-111949667D01*
X144511275Y-111793907D01*
X144511274Y-111793906D01*
X144439586Y-111620835D01*
X144403040Y-111437107D01*
X144403040Y-111249773D01*
X144439586Y-111066045D01*
X144511274Y-110892974D01*
X144615349Y-110737215D01*
X144615350Y-110737213D01*
X144747813Y-110604750D01*
X144826222Y-110552359D01*
X144903574Y-110500674D01*
X145076645Y-110428986D01*
X145260373Y-110392440D01*
X145447707Y-110392440D01*
X145631435Y-110428986D01*
G37*
G36*
X120520995Y-110423906D02*
G01*
X120694066Y-110495594D01*
X120736438Y-110523906D01*
X120849827Y-110599670D01*
X120982290Y-110732133D01*
X121032348Y-110807050D01*
X121086366Y-110887894D01*
X121158054Y-111060965D01*
X121194600Y-111244693D01*
X121194600Y-111432027D01*
X121158054Y-111615755D01*
X121086366Y-111788826D01*
X121082971Y-111793907D01*
X120982290Y-111944587D01*
X120849827Y-112077050D01*
X120771418Y-112129441D01*
X120694066Y-112181126D01*
X120520995Y-112252814D01*
X120337267Y-112289360D01*
X120149933Y-112289360D01*
X119966205Y-112252814D01*
X119793134Y-112181126D01*
X119715782Y-112129441D01*
X119637373Y-112077050D01*
X119504910Y-111944587D01*
X119404229Y-111793907D01*
X119400834Y-111788826D01*
X119329146Y-111615755D01*
X119292600Y-111432027D01*
X119292600Y-111244693D01*
X119329146Y-111060965D01*
X119400834Y-110887894D01*
X119454852Y-110807050D01*
X119504910Y-110732133D01*
X119637373Y-110599670D01*
X119750762Y-110523906D01*
X119793134Y-110495594D01*
X119966205Y-110423906D01*
X120149933Y-110387360D01*
X120337267Y-110387360D01*
X120520995Y-110423906D01*
G37*
G36*
X143091435Y-109158986D02*
G01*
X143264506Y-109230674D01*
X143341858Y-109282359D01*
X143420267Y-109334750D01*
X143552730Y-109467213D01*
X143552731Y-109467215D01*
X143656806Y-109622974D01*
X143728494Y-109796045D01*
X143765040Y-109979773D01*
X143765040Y-110167107D01*
X143728494Y-110350835D01*
X143656806Y-110523906D01*
X143656805Y-110523907D01*
X143552730Y-110679667D01*
X143420267Y-110812130D01*
X143341858Y-110864521D01*
X143264506Y-110916206D01*
X143091435Y-110987894D01*
X142907707Y-111024440D01*
X142720373Y-111024440D01*
X142536645Y-110987894D01*
X142363574Y-110916206D01*
X142286222Y-110864521D01*
X142207813Y-110812130D01*
X142075350Y-110679667D01*
X141971275Y-110523907D01*
X141971274Y-110523906D01*
X141899586Y-110350835D01*
X141863040Y-110167107D01*
X141863040Y-109979773D01*
X141899586Y-109796045D01*
X141971274Y-109622974D01*
X142075349Y-109467215D01*
X142075350Y-109467213D01*
X142207813Y-109334750D01*
X142286222Y-109282359D01*
X142363574Y-109230674D01*
X142536645Y-109158986D01*
X142720373Y-109122440D01*
X142907707Y-109122440D01*
X143091435Y-109158986D01*
G37*
G36*
X117980995Y-109153906D02*
G01*
X118154066Y-109225594D01*
X118196438Y-109253906D01*
X118309827Y-109329670D01*
X118442290Y-109462133D01*
X118492348Y-109537050D01*
X118546366Y-109617894D01*
X118618054Y-109790965D01*
X118654600Y-109974693D01*
X118654600Y-110162027D01*
X118618054Y-110345755D01*
X118546366Y-110518826D01*
X118542971Y-110523907D01*
X118442290Y-110674587D01*
X118309827Y-110807050D01*
X118231418Y-110859441D01*
X118154066Y-110911126D01*
X117980995Y-110982814D01*
X117797267Y-111019360D01*
X117609933Y-111019360D01*
X117426205Y-110982814D01*
X117253134Y-110911126D01*
X117175782Y-110859441D01*
X117097373Y-110807050D01*
X116964910Y-110674587D01*
X116864229Y-110523907D01*
X116860834Y-110518826D01*
X116789146Y-110345755D01*
X116752600Y-110162027D01*
X116752600Y-109974693D01*
X116789146Y-109790965D01*
X116860834Y-109617894D01*
X116914852Y-109537050D01*
X116964910Y-109462133D01*
X117097373Y-109329670D01*
X117210762Y-109253906D01*
X117253134Y-109225594D01*
X117426205Y-109153906D01*
X117609933Y-109117360D01*
X117797267Y-109117360D01*
X117980995Y-109153906D01*
G37*
G36*
X145631435Y-107888986D02*
G01*
X145804506Y-107960674D01*
X145804507Y-107960675D01*
X145960267Y-108064750D01*
X146092730Y-108197213D01*
X146092731Y-108197215D01*
X146196806Y-108352974D01*
X146268494Y-108526045D01*
X146305040Y-108709773D01*
X146305040Y-108897107D01*
X146268494Y-109080835D01*
X146196806Y-109253906D01*
X146196805Y-109253907D01*
X146092730Y-109409667D01*
X145960267Y-109542130D01*
X145881858Y-109594521D01*
X145804506Y-109646206D01*
X145631435Y-109717894D01*
X145447707Y-109754440D01*
X145260373Y-109754440D01*
X145076645Y-109717894D01*
X144903574Y-109646206D01*
X144826222Y-109594521D01*
X144747813Y-109542130D01*
X144615350Y-109409667D01*
X144511275Y-109253907D01*
X144511274Y-109253906D01*
X144439586Y-109080835D01*
X144403040Y-108897107D01*
X144403040Y-108709773D01*
X144439586Y-108526045D01*
X144511274Y-108352974D01*
X144615349Y-108197215D01*
X144615350Y-108197213D01*
X144747813Y-108064750D01*
X144903573Y-107960675D01*
X144903574Y-107960674D01*
X145076645Y-107888986D01*
X145260373Y-107852440D01*
X145447707Y-107852440D01*
X145631435Y-107888986D01*
G37*
G36*
X120520995Y-107883906D02*
G01*
X120694066Y-107955594D01*
X120701670Y-107960675D01*
X120849827Y-108059670D01*
X120982290Y-108192133D01*
X121034681Y-108270542D01*
X121086366Y-108347894D01*
X121158054Y-108520965D01*
X121194600Y-108704693D01*
X121194600Y-108892027D01*
X121158054Y-109075755D01*
X121086366Y-109248826D01*
X121082971Y-109253907D01*
X120982290Y-109404587D01*
X120849827Y-109537050D01*
X120771418Y-109589441D01*
X120694066Y-109641126D01*
X120520995Y-109712814D01*
X120337267Y-109749360D01*
X120149933Y-109749360D01*
X119966205Y-109712814D01*
X119793134Y-109641126D01*
X119715782Y-109589441D01*
X119637373Y-109537050D01*
X119504910Y-109404587D01*
X119404229Y-109253907D01*
X119400834Y-109248826D01*
X119329146Y-109075755D01*
X119292600Y-108892027D01*
X119292600Y-108704693D01*
X119329146Y-108520965D01*
X119400834Y-108347894D01*
X119452519Y-108270542D01*
X119504910Y-108192133D01*
X119637373Y-108059670D01*
X119785530Y-107960675D01*
X119793134Y-107955594D01*
X119966205Y-107883906D01*
X120149933Y-107847360D01*
X120337267Y-107847360D01*
X120520995Y-107883906D01*
G37*
G36*
X139313512Y-106863927D02*
G01*
X139462812Y-106893624D01*
X139626784Y-106961544D01*
X139774354Y-107060147D01*
X139899853Y-107185646D01*
X139998456Y-107333216D01*
X140066376Y-107497188D01*
X140101000Y-107671259D01*
X140101000Y-107848741D01*
X140066376Y-108022812D01*
X139998456Y-108186784D01*
X139899853Y-108334354D01*
X139774354Y-108459853D01*
X139626784Y-108558456D01*
X139462812Y-108626376D01*
X139313512Y-108656073D01*
X139288742Y-108661000D01*
X139111258Y-108661000D01*
X139086488Y-108656073D01*
X138937188Y-108626376D01*
X138773216Y-108558456D01*
X138625646Y-108459853D01*
X138500147Y-108334354D01*
X138401544Y-108186784D01*
X138333624Y-108022812D01*
X138299000Y-107848741D01*
X138299000Y-107671259D01*
X138333624Y-107497188D01*
X138401544Y-107333216D01*
X138500147Y-107185646D01*
X138625646Y-107060147D01*
X138773216Y-106961544D01*
X138937188Y-106893624D01*
X139086488Y-106863927D01*
X139111258Y-106859000D01*
X139288742Y-106859000D01*
X139313512Y-106863927D01*
G37*
G36*
X124113512Y-106863927D02*
G01*
X124262812Y-106893624D01*
X124426784Y-106961544D01*
X124574354Y-107060147D01*
X124699853Y-107185646D01*
X124798456Y-107333216D01*
X124866376Y-107497188D01*
X124901000Y-107671259D01*
X124901000Y-107848741D01*
X124866376Y-108022812D01*
X124798456Y-108186784D01*
X124699853Y-108334354D01*
X124574354Y-108459853D01*
X124426784Y-108558456D01*
X124262812Y-108626376D01*
X124113512Y-108656073D01*
X124088742Y-108661000D01*
X123911258Y-108661000D01*
X123886488Y-108656073D01*
X123737188Y-108626376D01*
X123573216Y-108558456D01*
X123425646Y-108459853D01*
X123300147Y-108334354D01*
X123201544Y-108186784D01*
X123133624Y-108022812D01*
X123099000Y-107848741D01*
X123099000Y-107671259D01*
X123133624Y-107497188D01*
X123201544Y-107333216D01*
X123300147Y-107185646D01*
X123425646Y-107060147D01*
X123573216Y-106961544D01*
X123737188Y-106893624D01*
X123886488Y-106863927D01*
X123911258Y-106859000D01*
X124088742Y-106859000D01*
X124113512Y-106863927D01*
G37*
G36*
X144847697Y-105363173D02*
G01*
X144993478Y-105423558D01*
X144993479Y-105423559D01*
X145124680Y-105511224D01*
X145236256Y-105622800D01*
X145236257Y-105622802D01*
X145323922Y-105754002D01*
X145384307Y-105899783D01*
X145415090Y-106054542D01*
X145415090Y-106212338D01*
X145384307Y-106367097D01*
X145323922Y-106512878D01*
X145323921Y-106512879D01*
X145236256Y-106644080D01*
X145124680Y-106755656D01*
X145058634Y-106799786D01*
X144993478Y-106843322D01*
X144847697Y-106903707D01*
X144692938Y-106934490D01*
X144535142Y-106934490D01*
X144380383Y-106903707D01*
X144234602Y-106843322D01*
X144169446Y-106799786D01*
X144103400Y-106755656D01*
X143991824Y-106644080D01*
X143991822Y-106644077D01*
X143989088Y-106641343D01*
X143978426Y-106628352D01*
X143959484Y-106612807D01*
X143937873Y-106601256D01*
X143914424Y-106594143D01*
X143890038Y-106591741D01*
X143865652Y-106594143D01*
X143842203Y-106601256D01*
X143820593Y-106612807D01*
X143801651Y-106628353D01*
X143786106Y-106647295D01*
X143774555Y-106668906D01*
X143767442Y-106692355D01*
X143765040Y-106716740D01*
X143765040Y-108484440D01*
X141863040Y-108484440D01*
X141863040Y-106582440D01*
X143745897Y-106582440D01*
X143770283Y-106580038D01*
X143793732Y-106572925D01*
X143815343Y-106561374D01*
X143834285Y-106545829D01*
X143849830Y-106526887D01*
X143861381Y-106505276D01*
X143868494Y-106481827D01*
X143870896Y-106457441D01*
X143868494Y-106433055D01*
X143861381Y-106409605D01*
X143843773Y-106367095D01*
X143812990Y-106212338D01*
X143812990Y-106054542D01*
X143843773Y-105899783D01*
X143904158Y-105754002D01*
X143991823Y-105622802D01*
X143991824Y-105622800D01*
X144103400Y-105511224D01*
X144234601Y-105423559D01*
X144234602Y-105423558D01*
X144380383Y-105363173D01*
X144535142Y-105332390D01*
X144692938Y-105332390D01*
X144847697Y-105363173D01*
G37*
G36*
X119737257Y-105358093D02*
G01*
X119883038Y-105418478D01*
X119890642Y-105423559D01*
X120014240Y-105506144D01*
X120125816Y-105617720D01*
X120145234Y-105646782D01*
X120213482Y-105748922D01*
X120273867Y-105894703D01*
X120304650Y-106049462D01*
X120304650Y-106207258D01*
X120273867Y-106362017D01*
X120213482Y-106507798D01*
X120181078Y-106556294D01*
X120125816Y-106639000D01*
X120014240Y-106750576D01*
X119948194Y-106794706D01*
X119883038Y-106838242D01*
X119737257Y-106898627D01*
X119582498Y-106929410D01*
X119424702Y-106929410D01*
X119269943Y-106898627D01*
X119124162Y-106838242D01*
X119059006Y-106794706D01*
X118992960Y-106750576D01*
X118881384Y-106639000D01*
X118881382Y-106638997D01*
X118878648Y-106636263D01*
X118867986Y-106623272D01*
X118849044Y-106607727D01*
X118827433Y-106596176D01*
X118803984Y-106589063D01*
X118779598Y-106586661D01*
X118755212Y-106589063D01*
X118731763Y-106596176D01*
X118710153Y-106607727D01*
X118691211Y-106623273D01*
X118675666Y-106642215D01*
X118664115Y-106663826D01*
X118657002Y-106687275D01*
X118654600Y-106711660D01*
X118654600Y-108479360D01*
X116752600Y-108479360D01*
X116752600Y-106577360D01*
X118635457Y-106577360D01*
X118659843Y-106574958D01*
X118683292Y-106567845D01*
X118704903Y-106556294D01*
X118723845Y-106540749D01*
X118739390Y-106521807D01*
X118750941Y-106500196D01*
X118758054Y-106476747D01*
X118760456Y-106452361D01*
X118758054Y-106427975D01*
X118750941Y-106404525D01*
X118733333Y-106362015D01*
X118702550Y-106207258D01*
X118702550Y-106049462D01*
X118733333Y-105894703D01*
X118793718Y-105748922D01*
X118861966Y-105646782D01*
X118881384Y-105617720D01*
X118992960Y-105506144D01*
X119116558Y-105423559D01*
X119124162Y-105418478D01*
X119269943Y-105358093D01*
X119424702Y-105327310D01*
X119582498Y-105327310D01*
X119737257Y-105358093D01*
G37*
G36*
X139313512Y-104323927D02*
G01*
X139462812Y-104353624D01*
X139626784Y-104421544D01*
X139774354Y-104520147D01*
X139899853Y-104645646D01*
X139998456Y-104793216D01*
X140066376Y-104957188D01*
X140096073Y-105106488D01*
X140101000Y-105131258D01*
X140101000Y-105308742D01*
X140096296Y-105332390D01*
X140066376Y-105482812D01*
X139998456Y-105646784D01*
X139899853Y-105794354D01*
X139774354Y-105919853D01*
X139626784Y-106018456D01*
X139462812Y-106086376D01*
X139313512Y-106116073D01*
X139288742Y-106121000D01*
X139111258Y-106121000D01*
X139086488Y-106116073D01*
X138937188Y-106086376D01*
X138773216Y-106018456D01*
X138625646Y-105919853D01*
X138500147Y-105794354D01*
X138401544Y-105646784D01*
X138333624Y-105482812D01*
X138303704Y-105332390D01*
X138299000Y-105308742D01*
X138299000Y-105131258D01*
X138303927Y-105106488D01*
X138333624Y-104957188D01*
X138401544Y-104793216D01*
X138500147Y-104645646D01*
X138625646Y-104520147D01*
X138773216Y-104421544D01*
X138937188Y-104353624D01*
X139086488Y-104323927D01*
X139111258Y-104319000D01*
X139288742Y-104319000D01*
X139313512Y-104323927D01*
G37*
G36*
X124113512Y-104323927D02*
G01*
X124262812Y-104353624D01*
X124426784Y-104421544D01*
X124574354Y-104520147D01*
X124699853Y-104645646D01*
X124798456Y-104793216D01*
X124866376Y-104957188D01*
X124896073Y-105106488D01*
X124901000Y-105131258D01*
X124901000Y-105308742D01*
X124896296Y-105332390D01*
X124866376Y-105482812D01*
X124798456Y-105646784D01*
X124699853Y-105794354D01*
X124574354Y-105919853D01*
X124426784Y-106018456D01*
X124262812Y-106086376D01*
X124113512Y-106116073D01*
X124088742Y-106121000D01*
X123911258Y-106121000D01*
X123886488Y-106116073D01*
X123737188Y-106086376D01*
X123573216Y-106018456D01*
X123425646Y-105919853D01*
X123300147Y-105794354D01*
X123201544Y-105646784D01*
X123133624Y-105482812D01*
X123103704Y-105332390D01*
X123099000Y-105308742D01*
X123099000Y-105131258D01*
X123103927Y-105106488D01*
X123133624Y-104957188D01*
X123201544Y-104793216D01*
X123300147Y-104645646D01*
X123425646Y-104520147D01*
X123573216Y-104421544D01*
X123737188Y-104353624D01*
X123886488Y-104323927D01*
X123911258Y-104319000D01*
X124088742Y-104319000D01*
X124113512Y-104323927D01*
G37*
G36*
X131324549Y-102671116D02*
G01*
X131435734Y-102693232D01*
X131583850Y-102754584D01*
X131598054Y-102760467D01*
X131645203Y-102779997D01*
X131833720Y-102905960D01*
X131994040Y-103066280D01*
X132120003Y-103254797D01*
X132206768Y-103464266D01*
X132251000Y-103686636D01*
X132251000Y-103913364D01*
X132206768Y-104135734D01*
X132120003Y-104345203D01*
X131994040Y-104533720D01*
X131833720Y-104694040D01*
X131645203Y-104820003D01*
X131435734Y-104906768D01*
X131324549Y-104928884D01*
X131213365Y-104951000D01*
X130986635Y-104951000D01*
X130875451Y-104928884D01*
X130764266Y-104906768D01*
X130554797Y-104820003D01*
X130366280Y-104694040D01*
X130205960Y-104533720D01*
X130079997Y-104345203D01*
X129993232Y-104135734D01*
X129949000Y-103913364D01*
X129949000Y-103686636D01*
X129993232Y-103464266D01*
X130079997Y-103254797D01*
X130205960Y-103066280D01*
X130366280Y-102905960D01*
X130554797Y-102779997D01*
X130601947Y-102760467D01*
X130616150Y-102754584D01*
X130764266Y-102693232D01*
X130875451Y-102671116D01*
X130986635Y-102649000D01*
X131213365Y-102649000D01*
X131324549Y-102671116D01*
G37*
G36*
X145631435Y-101757426D02*
G01*
X145804506Y-101829114D01*
X145881858Y-101880799D01*
X145960267Y-101933190D01*
X146092730Y-102065653D01*
X146092731Y-102065655D01*
X146196806Y-102221414D01*
X146268494Y-102394485D01*
X146305040Y-102578213D01*
X146305040Y-102765547D01*
X146268494Y-102949275D01*
X146196806Y-103122346D01*
X146196805Y-103122347D01*
X146092730Y-103278107D01*
X145960267Y-103410570D01*
X145881858Y-103462961D01*
X145804506Y-103514646D01*
X145631435Y-103586334D01*
X145447707Y-103622880D01*
X145260373Y-103622880D01*
X145076645Y-103586334D01*
X144903574Y-103514646D01*
X144826222Y-103462961D01*
X144747813Y-103410570D01*
X144615350Y-103278107D01*
X144511275Y-103122347D01*
X144511274Y-103122346D01*
X144439586Y-102949275D01*
X144403040Y-102765547D01*
X144403040Y-102578213D01*
X144439586Y-102394485D01*
X144511274Y-102221414D01*
X144615349Y-102065655D01*
X144615350Y-102065653D01*
X144747813Y-101933190D01*
X144826222Y-101880799D01*
X144903574Y-101829114D01*
X145076645Y-101757426D01*
X145260373Y-101720880D01*
X145447707Y-101720880D01*
X145631435Y-101757426D01*
G37*
G36*
X120520995Y-101752346D02*
G01*
X120694066Y-101824034D01*
X120736438Y-101852346D01*
X120849827Y-101928110D01*
X120982290Y-102060573D01*
X121012407Y-102105646D01*
X121086366Y-102216334D01*
X121158054Y-102389405D01*
X121194600Y-102573133D01*
X121194600Y-102760467D01*
X121158054Y-102944195D01*
X121086366Y-103117266D01*
X121082971Y-103122347D01*
X120982290Y-103273027D01*
X120849827Y-103405490D01*
X120771418Y-103457881D01*
X120694066Y-103509566D01*
X120520995Y-103581254D01*
X120337267Y-103617800D01*
X120149933Y-103617800D01*
X119966205Y-103581254D01*
X119793134Y-103509566D01*
X119715782Y-103457881D01*
X119637373Y-103405490D01*
X119504910Y-103273027D01*
X119404229Y-103122347D01*
X119400834Y-103117266D01*
X119329146Y-102944195D01*
X119292600Y-102760467D01*
X119292600Y-102573133D01*
X119329146Y-102389405D01*
X119400834Y-102216334D01*
X119474793Y-102105646D01*
X119504910Y-102060573D01*
X119637373Y-101928110D01*
X119750762Y-101852346D01*
X119793134Y-101824034D01*
X119966205Y-101752346D01*
X120149933Y-101715800D01*
X120337267Y-101715800D01*
X120520995Y-101752346D01*
G37*
G36*
X139313512Y-101783927D02*
G01*
X139462812Y-101813624D01*
X139626784Y-101881544D01*
X139774354Y-101980147D01*
X139899853Y-102105646D01*
X139998456Y-102253216D01*
X140066376Y-102417188D01*
X140096073Y-102566488D01*
X140098406Y-102578215D01*
X140101000Y-102591259D01*
X140101000Y-102768741D01*
X140066376Y-102942812D01*
X139998456Y-103106784D01*
X139899853Y-103254354D01*
X139774354Y-103379853D01*
X139626784Y-103478456D01*
X139462812Y-103546376D01*
X139313512Y-103576073D01*
X139288742Y-103581000D01*
X139111258Y-103581000D01*
X139086488Y-103576073D01*
X138937188Y-103546376D01*
X138773216Y-103478456D01*
X138625646Y-103379853D01*
X138500147Y-103254354D01*
X138401544Y-103106784D01*
X138333624Y-102942812D01*
X138299000Y-102768741D01*
X138299000Y-102591259D01*
X138301595Y-102578215D01*
X138303927Y-102566488D01*
X138333624Y-102417188D01*
X138401544Y-102253216D01*
X138500147Y-102105646D01*
X138625646Y-101980147D01*
X138773216Y-101881544D01*
X138937188Y-101813624D01*
X139086488Y-101783927D01*
X139111258Y-101779000D01*
X139288742Y-101779000D01*
X139313512Y-101783927D01*
G37*
G36*
X124113512Y-101783927D02*
G01*
X124262812Y-101813624D01*
X124426784Y-101881544D01*
X124574354Y-101980147D01*
X124699853Y-102105646D01*
X124798456Y-102253216D01*
X124866376Y-102417188D01*
X124896073Y-102566488D01*
X124898406Y-102578215D01*
X124901000Y-102591259D01*
X124901000Y-102768741D01*
X124866376Y-102942812D01*
X124798456Y-103106784D01*
X124699853Y-103254354D01*
X124574354Y-103379853D01*
X124426784Y-103478456D01*
X124262812Y-103546376D01*
X124113512Y-103576073D01*
X124088742Y-103581000D01*
X123911258Y-103581000D01*
X123886488Y-103576073D01*
X123737188Y-103546376D01*
X123573216Y-103478456D01*
X123425646Y-103379853D01*
X123300147Y-103254354D01*
X123201544Y-103106784D01*
X123133624Y-102942812D01*
X123099000Y-102768741D01*
X123099000Y-102591259D01*
X123101595Y-102578215D01*
X123103927Y-102566488D01*
X123133624Y-102417188D01*
X123201544Y-102253216D01*
X123300147Y-102105646D01*
X123425646Y-101980147D01*
X123573216Y-101881544D01*
X123737188Y-101813624D01*
X123886488Y-101783927D01*
X123911258Y-101779000D01*
X124088742Y-101779000D01*
X124113512Y-101783927D01*
G37*
G36*
X143091435Y-100487426D02*
G01*
X143264506Y-100559114D01*
X143341858Y-100610799D01*
X143420267Y-100663190D01*
X143552730Y-100795653D01*
X143552731Y-100795655D01*
X143656806Y-100951414D01*
X143728494Y-101124485D01*
X143765040Y-101308213D01*
X143765040Y-101495547D01*
X143728494Y-101679275D01*
X143656806Y-101852346D01*
X143656805Y-101852347D01*
X143552730Y-102008107D01*
X143420267Y-102140570D01*
X143341858Y-102192961D01*
X143264506Y-102244646D01*
X143091435Y-102316334D01*
X142907707Y-102352880D01*
X142720373Y-102352880D01*
X142536645Y-102316334D01*
X142363574Y-102244646D01*
X142286222Y-102192961D01*
X142207813Y-102140570D01*
X142075350Y-102008107D01*
X141971275Y-101852347D01*
X141971274Y-101852346D01*
X141899586Y-101679275D01*
X141863040Y-101495547D01*
X141863040Y-101308213D01*
X141899586Y-101124485D01*
X141971274Y-100951414D01*
X142075349Y-100795655D01*
X142075350Y-100795653D01*
X142207813Y-100663190D01*
X142286222Y-100610799D01*
X142363574Y-100559114D01*
X142536645Y-100487426D01*
X142720373Y-100450880D01*
X142907707Y-100450880D01*
X143091435Y-100487426D01*
G37*
G36*
X117980995Y-100482346D02*
G01*
X118154066Y-100554034D01*
X118196438Y-100582346D01*
X118309827Y-100658110D01*
X118442290Y-100790573D01*
X118475217Y-100839852D01*
X118546366Y-100946334D01*
X118618054Y-101119405D01*
X118654600Y-101303133D01*
X118654600Y-101490467D01*
X118618054Y-101674195D01*
X118546366Y-101847266D01*
X118542971Y-101852347D01*
X118442290Y-102003027D01*
X118309827Y-102135490D01*
X118231418Y-102187881D01*
X118154066Y-102239566D01*
X117980995Y-102311254D01*
X117797267Y-102347800D01*
X117609933Y-102347800D01*
X117426205Y-102311254D01*
X117253134Y-102239566D01*
X117175782Y-102187881D01*
X117097373Y-102135490D01*
X116964910Y-102003027D01*
X116864229Y-101852347D01*
X116860834Y-101847266D01*
X116789146Y-101674195D01*
X116752600Y-101490467D01*
X116752600Y-101303133D01*
X116789146Y-101119405D01*
X116860834Y-100946334D01*
X116931983Y-100839852D01*
X116964910Y-100790573D01*
X117097373Y-100658110D01*
X117210762Y-100582346D01*
X117253134Y-100554034D01*
X117426205Y-100482346D01*
X117609933Y-100445800D01*
X117797267Y-100445800D01*
X117980995Y-100482346D01*
G37*
G36*
X145631435Y-99217426D02*
G01*
X145804506Y-99289114D01*
X145804507Y-99289115D01*
X145960267Y-99393190D01*
X146092730Y-99525653D01*
X146092731Y-99525655D01*
X146196806Y-99681414D01*
X146268494Y-99854485D01*
X146305040Y-100038213D01*
X146305040Y-100225547D01*
X146268494Y-100409275D01*
X146196806Y-100582346D01*
X146196805Y-100582347D01*
X146092730Y-100738107D01*
X145960267Y-100870570D01*
X145881858Y-100922961D01*
X145804506Y-100974646D01*
X145631435Y-101046334D01*
X145447707Y-101082880D01*
X145260373Y-101082880D01*
X145076645Y-101046334D01*
X144903574Y-100974646D01*
X144826222Y-100922961D01*
X144747813Y-100870570D01*
X144615350Y-100738107D01*
X144511275Y-100582347D01*
X144511274Y-100582346D01*
X144439586Y-100409275D01*
X144403040Y-100225547D01*
X144403040Y-100038213D01*
X144439586Y-99854485D01*
X144511274Y-99681414D01*
X144615349Y-99525655D01*
X144615350Y-99525653D01*
X144747813Y-99393190D01*
X144903573Y-99289115D01*
X144903574Y-99289114D01*
X145076645Y-99217426D01*
X145260373Y-99180880D01*
X145447707Y-99180880D01*
X145631435Y-99217426D01*
G37*
G36*
X120520995Y-99212346D02*
G01*
X120694066Y-99284034D01*
X120701670Y-99289115D01*
X120849827Y-99388110D01*
X120982290Y-99520573D01*
X121012407Y-99565646D01*
X121086366Y-99676334D01*
X121158054Y-99849405D01*
X121194600Y-100033133D01*
X121194600Y-100220467D01*
X121158054Y-100404195D01*
X121086366Y-100577266D01*
X121082971Y-100582347D01*
X120982290Y-100733027D01*
X120849827Y-100865490D01*
X120771418Y-100917881D01*
X120694066Y-100969566D01*
X120520995Y-101041254D01*
X120337267Y-101077800D01*
X120149933Y-101077800D01*
X119966205Y-101041254D01*
X119793134Y-100969566D01*
X119715782Y-100917881D01*
X119637373Y-100865490D01*
X119504910Y-100733027D01*
X119404229Y-100582347D01*
X119400834Y-100577266D01*
X119329146Y-100404195D01*
X119292600Y-100220467D01*
X119292600Y-100033133D01*
X119329146Y-99849405D01*
X119400834Y-99676334D01*
X119474793Y-99565646D01*
X119504910Y-99520573D01*
X119637373Y-99388110D01*
X119785530Y-99289115D01*
X119793134Y-99284034D01*
X119966205Y-99212346D01*
X120149933Y-99175800D01*
X120337267Y-99175800D01*
X120520995Y-99212346D01*
G37*
G36*
X139313512Y-99243927D02*
G01*
X139462812Y-99273624D01*
X139626784Y-99341544D01*
X139774354Y-99440147D01*
X139899853Y-99565646D01*
X139998456Y-99713216D01*
X140066376Y-99877188D01*
X140096073Y-100026488D01*
X140098406Y-100038215D01*
X140101000Y-100051259D01*
X140101000Y-100228741D01*
X140066376Y-100402812D01*
X139998456Y-100566784D01*
X139899853Y-100714354D01*
X139774354Y-100839853D01*
X139626784Y-100938456D01*
X139462812Y-101006376D01*
X139313512Y-101036073D01*
X139288742Y-101041000D01*
X139111258Y-101041000D01*
X139086488Y-101036073D01*
X138937188Y-101006376D01*
X138773216Y-100938456D01*
X138625646Y-100839853D01*
X138500147Y-100714354D01*
X138401544Y-100566784D01*
X138333624Y-100402812D01*
X138299000Y-100228741D01*
X138299000Y-100051259D01*
X138301595Y-100038215D01*
X138303927Y-100026488D01*
X138333624Y-99877188D01*
X138401544Y-99713216D01*
X138500147Y-99565646D01*
X138625646Y-99440147D01*
X138773216Y-99341544D01*
X138937188Y-99273624D01*
X139086488Y-99243927D01*
X139111258Y-99239000D01*
X139288742Y-99239000D01*
X139313512Y-99243927D01*
G37*
G36*
X124113512Y-99243927D02*
G01*
X124262812Y-99273624D01*
X124426784Y-99341544D01*
X124574354Y-99440147D01*
X124699853Y-99565646D01*
X124798456Y-99713216D01*
X124866376Y-99877188D01*
X124896073Y-100026488D01*
X124898406Y-100038215D01*
X124901000Y-100051259D01*
X124901000Y-100228741D01*
X124866376Y-100402812D01*
X124798456Y-100566784D01*
X124699853Y-100714354D01*
X124574354Y-100839853D01*
X124426784Y-100938456D01*
X124262812Y-101006376D01*
X124113512Y-101036073D01*
X124088742Y-101041000D01*
X123911258Y-101041000D01*
X123886488Y-101036073D01*
X123737188Y-101006376D01*
X123573216Y-100938456D01*
X123425646Y-100839853D01*
X123300147Y-100714354D01*
X123201544Y-100566784D01*
X123133624Y-100402812D01*
X123099000Y-100228741D01*
X123099000Y-100051259D01*
X123101595Y-100038215D01*
X123103927Y-100026488D01*
X123133624Y-99877188D01*
X123201544Y-99713216D01*
X123300147Y-99565646D01*
X123425646Y-99440147D01*
X123573216Y-99341544D01*
X123737188Y-99273624D01*
X123886488Y-99243927D01*
X123911258Y-99239000D01*
X124088742Y-99239000D01*
X124113512Y-99243927D01*
G37*
G36*
X144847697Y-96691613D02*
G01*
X144993478Y-96751998D01*
X144993479Y-96751999D01*
X145124680Y-96839664D01*
X145236256Y-96951240D01*
X145236257Y-96951242D01*
X145323922Y-97082442D01*
X145384307Y-97228223D01*
X145415090Y-97382982D01*
X145415090Y-97540778D01*
X145384307Y-97695537D01*
X145323922Y-97841318D01*
X145323921Y-97841319D01*
X145236256Y-97972520D01*
X145124680Y-98084096D01*
X145058634Y-98128226D01*
X144993478Y-98171762D01*
X144847697Y-98232147D01*
X144692938Y-98262930D01*
X144535142Y-98262930D01*
X144380383Y-98232147D01*
X144234602Y-98171762D01*
X144169446Y-98128226D01*
X144103400Y-98084096D01*
X143991824Y-97972520D01*
X143991822Y-97972517D01*
X143989088Y-97969783D01*
X143978426Y-97956792D01*
X143959484Y-97941247D01*
X143937873Y-97929696D01*
X143914424Y-97922583D01*
X143890038Y-97920181D01*
X143865652Y-97922583D01*
X143842203Y-97929696D01*
X143820593Y-97941247D01*
X143801651Y-97956793D01*
X143786106Y-97975735D01*
X143774555Y-97997346D01*
X143767442Y-98020795D01*
X143765040Y-98045180D01*
X143765040Y-99812880D01*
X141863040Y-99812880D01*
X141863040Y-97910880D01*
X143745897Y-97910880D01*
X143770283Y-97908478D01*
X143793732Y-97901365D01*
X143815343Y-97889814D01*
X143834285Y-97874269D01*
X143849830Y-97855327D01*
X143861381Y-97833716D01*
X143868494Y-97810267D01*
X143870896Y-97785881D01*
X143868494Y-97761495D01*
X143861381Y-97738045D01*
X143843773Y-97695535D01*
X143812990Y-97540778D01*
X143812990Y-97382982D01*
X143843773Y-97228223D01*
X143904158Y-97082442D01*
X143991823Y-96951242D01*
X143991824Y-96951240D01*
X144103400Y-96839664D01*
X144234601Y-96751999D01*
X144234602Y-96751998D01*
X144380383Y-96691613D01*
X144535142Y-96660830D01*
X144692938Y-96660830D01*
X144847697Y-96691613D01*
G37*
G36*
X119737257Y-96686533D02*
G01*
X119883038Y-96746918D01*
X119890642Y-96751999D01*
X120014240Y-96834584D01*
X120125816Y-96946160D01*
X120169946Y-97012206D01*
X120213482Y-97077362D01*
X120273867Y-97223143D01*
X120304650Y-97377902D01*
X120304650Y-97535698D01*
X120273867Y-97690457D01*
X120213482Y-97836238D01*
X120181078Y-97884734D01*
X120125816Y-97967440D01*
X120014240Y-98079016D01*
X119948194Y-98123146D01*
X119883038Y-98166682D01*
X119737257Y-98227067D01*
X119582498Y-98257850D01*
X119424702Y-98257850D01*
X119269943Y-98227067D01*
X119124162Y-98166682D01*
X119059006Y-98123146D01*
X118992960Y-98079016D01*
X118881384Y-97967440D01*
X118881382Y-97967437D01*
X118878648Y-97964703D01*
X118867986Y-97951712D01*
X118849044Y-97936167D01*
X118827433Y-97924616D01*
X118803984Y-97917503D01*
X118779598Y-97915101D01*
X118755212Y-97917503D01*
X118731763Y-97924616D01*
X118710153Y-97936167D01*
X118691211Y-97951713D01*
X118675666Y-97970655D01*
X118664115Y-97992266D01*
X118657002Y-98015715D01*
X118654600Y-98040100D01*
X118654600Y-99807800D01*
X116752600Y-99807800D01*
X116752600Y-97905800D01*
X118635457Y-97905800D01*
X118659843Y-97903398D01*
X118683292Y-97896285D01*
X118704903Y-97884734D01*
X118723845Y-97869189D01*
X118739390Y-97850247D01*
X118750941Y-97828636D01*
X118758054Y-97805187D01*
X118760456Y-97780801D01*
X118758054Y-97756415D01*
X118750941Y-97732965D01*
X118733333Y-97690455D01*
X118702550Y-97535698D01*
X118702550Y-97377902D01*
X118733333Y-97223143D01*
X118793718Y-97077362D01*
X118837254Y-97012206D01*
X118881384Y-96946160D01*
X118992960Y-96834584D01*
X119116558Y-96751999D01*
X119124162Y-96746918D01*
X119269943Y-96686533D01*
X119424702Y-96655750D01*
X119582498Y-96655750D01*
X119737257Y-96686533D01*
G37*
G36*
X124113512Y-96703927D02*
G01*
X124262812Y-96733624D01*
X124426784Y-96801544D01*
X124574354Y-96900147D01*
X124699853Y-97025646D01*
X124798456Y-97173216D01*
X124866376Y-97337188D01*
X124896073Y-97486488D01*
X124901000Y-97511258D01*
X124901000Y-97688742D01*
X124899649Y-97695535D01*
X124866376Y-97862812D01*
X124798456Y-98026784D01*
X124699853Y-98174354D01*
X124574354Y-98299853D01*
X124426784Y-98398456D01*
X124262812Y-98466376D01*
X124113512Y-98496073D01*
X124088742Y-98501000D01*
X123911258Y-98501000D01*
X123886488Y-98496073D01*
X123737188Y-98466376D01*
X123573216Y-98398456D01*
X123425646Y-98299853D01*
X123300147Y-98174354D01*
X123201544Y-98026784D01*
X123133624Y-97862812D01*
X123100351Y-97695535D01*
X123099000Y-97688742D01*
X123099000Y-97511258D01*
X123103927Y-97486488D01*
X123133624Y-97337188D01*
X123201544Y-97173216D01*
X123300147Y-97025646D01*
X123425646Y-96900147D01*
X123573216Y-96801544D01*
X123737188Y-96733624D01*
X123886488Y-96703927D01*
X123911258Y-96699000D01*
X124088742Y-96699000D01*
X124113512Y-96703927D01*
G37*
G36*
X139313512Y-96703927D02*
G01*
X139462812Y-96733624D01*
X139626784Y-96801544D01*
X139774354Y-96900147D01*
X139899853Y-97025646D01*
X139998456Y-97173216D01*
X140066376Y-97337188D01*
X140096073Y-97486488D01*
X140101000Y-97511258D01*
X140101000Y-97688742D01*
X140099649Y-97695535D01*
X140066376Y-97862812D01*
X139998456Y-98026784D01*
X139899853Y-98174354D01*
X139774354Y-98299853D01*
X139626784Y-98398456D01*
X139462812Y-98466376D01*
X139313512Y-98496073D01*
X139288742Y-98501000D01*
X139111258Y-98501000D01*
X139086488Y-98496073D01*
X138937188Y-98466376D01*
X138773216Y-98398456D01*
X138625646Y-98299853D01*
X138500147Y-98174354D01*
X138401544Y-98026784D01*
X138333624Y-97862812D01*
X138300351Y-97695535D01*
X138299000Y-97688742D01*
X138299000Y-97511258D01*
X138303927Y-97486488D01*
X138333624Y-97337188D01*
X138401544Y-97173216D01*
X138500147Y-97025646D01*
X138625646Y-96900147D01*
X138773216Y-96801544D01*
X138937188Y-96733624D01*
X139086488Y-96703927D01*
X139111258Y-96699000D01*
X139288742Y-96699000D01*
X139313512Y-96703927D01*
G37*
G36*
X124113512Y-94163927D02*
G01*
X124262812Y-94193624D01*
X124426784Y-94261544D01*
X124574354Y-94360147D01*
X124699853Y-94485646D01*
X124798456Y-94633216D01*
X124866376Y-94797188D01*
X124901000Y-94971259D01*
X124901000Y-95148741D01*
X124866376Y-95322812D01*
X124798456Y-95486784D01*
X124699853Y-95634354D01*
X124574354Y-95759853D01*
X124426784Y-95858456D01*
X124262812Y-95926376D01*
X124113512Y-95956073D01*
X124088742Y-95961000D01*
X123911258Y-95961000D01*
X123886488Y-95956073D01*
X123737188Y-95926376D01*
X123573216Y-95858456D01*
X123425646Y-95759853D01*
X123300147Y-95634354D01*
X123201544Y-95486784D01*
X123133624Y-95322812D01*
X123099000Y-95148741D01*
X123099000Y-94971259D01*
X123133624Y-94797188D01*
X123201544Y-94633216D01*
X123300147Y-94485646D01*
X123425646Y-94360147D01*
X123573216Y-94261544D01*
X123737188Y-94193624D01*
X123886488Y-94163927D01*
X123911258Y-94159000D01*
X124088742Y-94159000D01*
X124113512Y-94163927D01*
G37*
G36*
X139313512Y-94163927D02*
G01*
X139462812Y-94193624D01*
X139626784Y-94261544D01*
X139774354Y-94360147D01*
X139899853Y-94485646D01*
X139998456Y-94633216D01*
X140066376Y-94797188D01*
X140101000Y-94971259D01*
X140101000Y-95148741D01*
X140066376Y-95322812D01*
X139998456Y-95486784D01*
X139899853Y-95634354D01*
X139774354Y-95759853D01*
X139626784Y-95858456D01*
X139462812Y-95926376D01*
X139313512Y-95956073D01*
X139288742Y-95961000D01*
X139111258Y-95961000D01*
X139086488Y-95956073D01*
X138937188Y-95926376D01*
X138773216Y-95858456D01*
X138625646Y-95759853D01*
X138500147Y-95634354D01*
X138401544Y-95486784D01*
X138333624Y-95322812D01*
X138299000Y-95148741D01*
X138299000Y-94971259D01*
X138333624Y-94797188D01*
X138401544Y-94633216D01*
X138500147Y-94485646D01*
X138625646Y-94360147D01*
X138773216Y-94261544D01*
X138937188Y-94193624D01*
X139086488Y-94163927D01*
X139111258Y-94159000D01*
X139288742Y-94159000D01*
X139313512Y-94163927D01*
G37*
G36*
X145631435Y-93085866D02*
G01*
X145804506Y-93157554D01*
X145881858Y-93209239D01*
X145960267Y-93261630D01*
X146092730Y-93394093D01*
X146135999Y-93458850D01*
X146196806Y-93549854D01*
X146268494Y-93722925D01*
X146305040Y-93906653D01*
X146305040Y-94093987D01*
X146268494Y-94277715D01*
X146196806Y-94450786D01*
X146145121Y-94528138D01*
X146092730Y-94606547D01*
X145960267Y-94739010D01*
X145881858Y-94791401D01*
X145804506Y-94843086D01*
X145631435Y-94914774D01*
X145447707Y-94951320D01*
X145260373Y-94951320D01*
X145076645Y-94914774D01*
X144903574Y-94843086D01*
X144826222Y-94791401D01*
X144747813Y-94739010D01*
X144615350Y-94606547D01*
X144562959Y-94528138D01*
X144511274Y-94450786D01*
X144439586Y-94277715D01*
X144403040Y-94093987D01*
X144403040Y-93906653D01*
X144439586Y-93722925D01*
X144511274Y-93549854D01*
X144572081Y-93458850D01*
X144615350Y-93394093D01*
X144747813Y-93261630D01*
X144826222Y-93209239D01*
X144903574Y-93157554D01*
X145076645Y-93085866D01*
X145260373Y-93049320D01*
X145447707Y-93049320D01*
X145631435Y-93085866D01*
G37*
G36*
X120515915Y-93075706D02*
G01*
X120688986Y-93147394D01*
X120738962Y-93180787D01*
X120844747Y-93251470D01*
X120977210Y-93383933D01*
X120984000Y-93394095D01*
X121081286Y-93539694D01*
X121152974Y-93712765D01*
X121189520Y-93896493D01*
X121189520Y-94083827D01*
X121152974Y-94267555D01*
X121081286Y-94440626D01*
X121051204Y-94485647D01*
X120977210Y-94596387D01*
X120844747Y-94728850D01*
X120829541Y-94739010D01*
X120688986Y-94832926D01*
X120515915Y-94904614D01*
X120332187Y-94941160D01*
X120144853Y-94941160D01*
X119961125Y-94904614D01*
X119788054Y-94832926D01*
X119647499Y-94739010D01*
X119632293Y-94728850D01*
X119499830Y-94596387D01*
X119425836Y-94485647D01*
X119395754Y-94440626D01*
X119324066Y-94267555D01*
X119287520Y-94083827D01*
X119287520Y-93896493D01*
X119324066Y-93712765D01*
X119395754Y-93539694D01*
X119493040Y-93394095D01*
X119499830Y-93383933D01*
X119632293Y-93251470D01*
X119738078Y-93180787D01*
X119788054Y-93147394D01*
X119961125Y-93075706D01*
X120144853Y-93039160D01*
X120332187Y-93039160D01*
X120515915Y-93075706D01*
G37*
G36*
X143091435Y-91815866D02*
G01*
X143264506Y-91887554D01*
X143341858Y-91939239D01*
X143420267Y-91991630D01*
X143552730Y-92124093D01*
X143552731Y-92124095D01*
X143656806Y-92279854D01*
X143728494Y-92452925D01*
X143765040Y-92636653D01*
X143765040Y-92823987D01*
X143728494Y-93007715D01*
X143656806Y-93180786D01*
X143656805Y-93180787D01*
X143552730Y-93336547D01*
X143420267Y-93469010D01*
X143341858Y-93521401D01*
X143264506Y-93573086D01*
X143091435Y-93644774D01*
X142907707Y-93681320D01*
X142720373Y-93681320D01*
X142536645Y-93644774D01*
X142363574Y-93573086D01*
X142286222Y-93521401D01*
X142207813Y-93469010D01*
X142075350Y-93336547D01*
X141971275Y-93180787D01*
X141971274Y-93180786D01*
X141899586Y-93007715D01*
X141863040Y-92823987D01*
X141863040Y-92636653D01*
X141899586Y-92452925D01*
X141971274Y-92279854D01*
X142075349Y-92124095D01*
X142075350Y-92124093D01*
X142207813Y-91991630D01*
X142286222Y-91939239D01*
X142363574Y-91887554D01*
X142536645Y-91815866D01*
X142720373Y-91779320D01*
X142907707Y-91779320D01*
X143091435Y-91815866D01*
G37*
G36*
X117975915Y-91805706D02*
G01*
X118148986Y-91877394D01*
X118198962Y-91910787D01*
X118304747Y-91981470D01*
X118437210Y-92113933D01*
X118444000Y-92124095D01*
X118541286Y-92269694D01*
X118612974Y-92442765D01*
X118649520Y-92626493D01*
X118649520Y-92813827D01*
X118612974Y-92997555D01*
X118541286Y-93170626D01*
X118489601Y-93247978D01*
X118437210Y-93326387D01*
X118304747Y-93458850D01*
X118289541Y-93469010D01*
X118148986Y-93562926D01*
X117975915Y-93634614D01*
X117792187Y-93671160D01*
X117604853Y-93671160D01*
X117421125Y-93634614D01*
X117248054Y-93562926D01*
X117107499Y-93469010D01*
X117092293Y-93458850D01*
X116959830Y-93326387D01*
X116907439Y-93247978D01*
X116855754Y-93170626D01*
X116784066Y-92997555D01*
X116747520Y-92813827D01*
X116747520Y-92626493D01*
X116784066Y-92442765D01*
X116855754Y-92269694D01*
X116953040Y-92124095D01*
X116959830Y-92113933D01*
X117092293Y-91981470D01*
X117198078Y-91910787D01*
X117248054Y-91877394D01*
X117421125Y-91805706D01*
X117604853Y-91769160D01*
X117792187Y-91769160D01*
X117975915Y-91805706D01*
G37*
G36*
X124113512Y-91623927D02*
G01*
X124262812Y-91653624D01*
X124426784Y-91721544D01*
X124574354Y-91820147D01*
X124699853Y-91945646D01*
X124798456Y-92093216D01*
X124866376Y-92257188D01*
X124901000Y-92431259D01*
X124901000Y-92608741D01*
X124866376Y-92782812D01*
X124798456Y-92946784D01*
X124699853Y-93094354D01*
X124574354Y-93219853D01*
X124426784Y-93318456D01*
X124262812Y-93386376D01*
X124113512Y-93416073D01*
X124088742Y-93421000D01*
X123911258Y-93421000D01*
X123886488Y-93416073D01*
X123737188Y-93386376D01*
X123573216Y-93318456D01*
X123425646Y-93219853D01*
X123300147Y-93094354D01*
X123201544Y-92946784D01*
X123133624Y-92782812D01*
X123099000Y-92608741D01*
X123099000Y-92431259D01*
X123133624Y-92257188D01*
X123201544Y-92093216D01*
X123300147Y-91945646D01*
X123425646Y-91820147D01*
X123573216Y-91721544D01*
X123737188Y-91653624D01*
X123886488Y-91623927D01*
X123911258Y-91619000D01*
X124088742Y-91619000D01*
X124113512Y-91623927D01*
G37*
G36*
X139313512Y-91623927D02*
G01*
X139462812Y-91653624D01*
X139626784Y-91721544D01*
X139774354Y-91820147D01*
X139899853Y-91945646D01*
X139998456Y-92093216D01*
X140066376Y-92257188D01*
X140101000Y-92431259D01*
X140101000Y-92608741D01*
X140066376Y-92782812D01*
X139998456Y-92946784D01*
X139899853Y-93094354D01*
X139774354Y-93219853D01*
X139626784Y-93318456D01*
X139462812Y-93386376D01*
X139313512Y-93416073D01*
X139288742Y-93421000D01*
X139111258Y-93421000D01*
X139086488Y-93416073D01*
X138937188Y-93386376D01*
X138773216Y-93318456D01*
X138625646Y-93219853D01*
X138500147Y-93094354D01*
X138401544Y-92946784D01*
X138333624Y-92782812D01*
X138299000Y-92608741D01*
X138299000Y-92431259D01*
X138333624Y-92257188D01*
X138401544Y-92093216D01*
X138500147Y-91945646D01*
X138625646Y-91820147D01*
X138773216Y-91721544D01*
X138937188Y-91653624D01*
X139086488Y-91623927D01*
X139111258Y-91619000D01*
X139288742Y-91619000D01*
X139313512Y-91623927D01*
G37*
G36*
X145631435Y-90545866D02*
G01*
X145804506Y-90617554D01*
X145804507Y-90617555D01*
X145960267Y-90721630D01*
X146092730Y-90854093D01*
X146145121Y-90932502D01*
X146196806Y-91009854D01*
X146268494Y-91182925D01*
X146305040Y-91366653D01*
X146305040Y-91553987D01*
X146268494Y-91737715D01*
X146196806Y-91910786D01*
X146149577Y-91981469D01*
X146092730Y-92066547D01*
X145960267Y-92199010D01*
X145881858Y-92251401D01*
X145804506Y-92303086D01*
X145631435Y-92374774D01*
X145447707Y-92411320D01*
X145260373Y-92411320D01*
X145076645Y-92374774D01*
X144903574Y-92303086D01*
X144826222Y-92251401D01*
X144747813Y-92199010D01*
X144615350Y-92066547D01*
X144558503Y-91981469D01*
X144511274Y-91910786D01*
X144439586Y-91737715D01*
X144403040Y-91553987D01*
X144403040Y-91366653D01*
X144439586Y-91182925D01*
X144511274Y-91009854D01*
X144562959Y-90932502D01*
X144615350Y-90854093D01*
X144747813Y-90721630D01*
X144903573Y-90617555D01*
X144903574Y-90617554D01*
X145076645Y-90545866D01*
X145260373Y-90509320D01*
X145447707Y-90509320D01*
X145631435Y-90545866D01*
G37*
G36*
X120515915Y-90535706D02*
G01*
X120688986Y-90607394D01*
X120688987Y-90607395D01*
X120844747Y-90711470D01*
X120977210Y-90843933D01*
X120984000Y-90854095D01*
X121081286Y-90999694D01*
X121152974Y-91172765D01*
X121189520Y-91356493D01*
X121189520Y-91543827D01*
X121152974Y-91727555D01*
X121081286Y-91900626D01*
X121051204Y-91945647D01*
X120977210Y-92056387D01*
X120844747Y-92188850D01*
X120829541Y-92199010D01*
X120688986Y-92292926D01*
X120515915Y-92364614D01*
X120332187Y-92401160D01*
X120144853Y-92401160D01*
X119961125Y-92364614D01*
X119788054Y-92292926D01*
X119647499Y-92199010D01*
X119632293Y-92188850D01*
X119499830Y-92056387D01*
X119425836Y-91945647D01*
X119395754Y-91900626D01*
X119324066Y-91727555D01*
X119287520Y-91543827D01*
X119287520Y-91356493D01*
X119324066Y-91172765D01*
X119395754Y-90999694D01*
X119493040Y-90854095D01*
X119499830Y-90843933D01*
X119632293Y-90711470D01*
X119788053Y-90607395D01*
X119788054Y-90607394D01*
X119961125Y-90535706D01*
X120144853Y-90499160D01*
X120332187Y-90499160D01*
X120515915Y-90535706D01*
G37*
G36*
X144847697Y-88020053D02*
G01*
X144993478Y-88080438D01*
X144993479Y-88080439D01*
X145124680Y-88168104D01*
X145236256Y-88279680D01*
X145277228Y-88341000D01*
X145323922Y-88410882D01*
X145384307Y-88556663D01*
X145415090Y-88711422D01*
X145415090Y-88869218D01*
X145384307Y-89023977D01*
X145323922Y-89169758D01*
X145301905Y-89202709D01*
X145236256Y-89300960D01*
X145124680Y-89412536D01*
X145058634Y-89456666D01*
X144993478Y-89500202D01*
X144847697Y-89560587D01*
X144692938Y-89591370D01*
X144535142Y-89591370D01*
X144380383Y-89560587D01*
X144234602Y-89500202D01*
X144169446Y-89456666D01*
X144103400Y-89412536D01*
X143991824Y-89300960D01*
X143991822Y-89300957D01*
X143989088Y-89298223D01*
X143978426Y-89285232D01*
X143959484Y-89269687D01*
X143937873Y-89258136D01*
X143914424Y-89251023D01*
X143890038Y-89248621D01*
X143865652Y-89251023D01*
X143842203Y-89258136D01*
X143820593Y-89269687D01*
X143801651Y-89285233D01*
X143786106Y-89304175D01*
X143774555Y-89325786D01*
X143767442Y-89349235D01*
X143765040Y-89373620D01*
X143765040Y-91141320D01*
X141863040Y-91141320D01*
X141863040Y-89239320D01*
X143745897Y-89239320D01*
X143770283Y-89236918D01*
X143793732Y-89229805D01*
X143815343Y-89218254D01*
X143834285Y-89202709D01*
X143849830Y-89183767D01*
X143861381Y-89162156D01*
X143868494Y-89138707D01*
X143870896Y-89114321D01*
X143868494Y-89089935D01*
X143861381Y-89066485D01*
X143843773Y-89023975D01*
X143812990Y-88869218D01*
X143812990Y-88711422D01*
X143843773Y-88556663D01*
X143904158Y-88410882D01*
X143950852Y-88341000D01*
X143991824Y-88279680D01*
X144103400Y-88168104D01*
X144234601Y-88080439D01*
X144234602Y-88080438D01*
X144380383Y-88020053D01*
X144535142Y-87989270D01*
X144692938Y-87989270D01*
X144847697Y-88020053D01*
G37*
G36*
X119732177Y-88009893D02*
G01*
X119877958Y-88070278D01*
X119893165Y-88080439D01*
X120009160Y-88157944D01*
X120120736Y-88269520D01*
X120145362Y-88306376D01*
X120208402Y-88400722D01*
X120268787Y-88546503D01*
X120299570Y-88701262D01*
X120299570Y-88859058D01*
X120268787Y-89013817D01*
X120208402Y-89159598D01*
X120199041Y-89173607D01*
X120120736Y-89290800D01*
X120009160Y-89402376D01*
X119943114Y-89446506D01*
X119877958Y-89490042D01*
X119732177Y-89550427D01*
X119577418Y-89581210D01*
X119419622Y-89581210D01*
X119264863Y-89550427D01*
X119119082Y-89490042D01*
X119053926Y-89446506D01*
X118987880Y-89402376D01*
X118876304Y-89290800D01*
X118876302Y-89290797D01*
X118873568Y-89288063D01*
X118862906Y-89275072D01*
X118843964Y-89259527D01*
X118822353Y-89247976D01*
X118798904Y-89240863D01*
X118774518Y-89238461D01*
X118750132Y-89240863D01*
X118726683Y-89247976D01*
X118705073Y-89259527D01*
X118686131Y-89275073D01*
X118670586Y-89294015D01*
X118659035Y-89315626D01*
X118651922Y-89339075D01*
X118649520Y-89363460D01*
X118649520Y-91131160D01*
X116747520Y-91131160D01*
X116747520Y-89229160D01*
X118630377Y-89229160D01*
X118654763Y-89226758D01*
X118678212Y-89219645D01*
X118699823Y-89208094D01*
X118718765Y-89192549D01*
X118734310Y-89173607D01*
X118745861Y-89151996D01*
X118752974Y-89128547D01*
X118755376Y-89104161D01*
X118752974Y-89079775D01*
X118745861Y-89056325D01*
X118739681Y-89041406D01*
X118728254Y-89013818D01*
X118697470Y-88859057D01*
X118697470Y-88701262D01*
X118728253Y-88546503D01*
X118788638Y-88400722D01*
X118851678Y-88306376D01*
X118876304Y-88269520D01*
X118987880Y-88157944D01*
X119103875Y-88080439D01*
X119119082Y-88070278D01*
X119264863Y-88009893D01*
X119419622Y-87979110D01*
X119577418Y-87979110D01*
X119732177Y-88009893D01*
G37*
G36*
X124113512Y-89083927D02*
G01*
X124262812Y-89113624D01*
X124426784Y-89181544D01*
X124574354Y-89280147D01*
X124699853Y-89405646D01*
X124798456Y-89553216D01*
X124866376Y-89717188D01*
X124901000Y-89891259D01*
X124901000Y-90068741D01*
X124866376Y-90242812D01*
X124798456Y-90406784D01*
X124699853Y-90554354D01*
X124574354Y-90679853D01*
X124426784Y-90778456D01*
X124262812Y-90846376D01*
X124113512Y-90876073D01*
X124088742Y-90881000D01*
X123911258Y-90881000D01*
X123886488Y-90876073D01*
X123737188Y-90846376D01*
X123573216Y-90778456D01*
X123425646Y-90679853D01*
X123300147Y-90554354D01*
X123201544Y-90406784D01*
X123133624Y-90242812D01*
X123099000Y-90068741D01*
X123099000Y-89891259D01*
X123133624Y-89717188D01*
X123201544Y-89553216D01*
X123300147Y-89405646D01*
X123425646Y-89280147D01*
X123573216Y-89181544D01*
X123737188Y-89113624D01*
X123886488Y-89083927D01*
X123911258Y-89079000D01*
X124088742Y-89079000D01*
X124113512Y-89083927D01*
G37*
G36*
X139313512Y-89083927D02*
G01*
X139462812Y-89113624D01*
X139626784Y-89181544D01*
X139774354Y-89280147D01*
X139899853Y-89405646D01*
X139998456Y-89553216D01*
X140066376Y-89717188D01*
X140101000Y-89891259D01*
X140101000Y-90068741D01*
X140066376Y-90242812D01*
X139998456Y-90406784D01*
X139899853Y-90554354D01*
X139774354Y-90679853D01*
X139626784Y-90778456D01*
X139462812Y-90846376D01*
X139313512Y-90876073D01*
X139288742Y-90881000D01*
X139111258Y-90881000D01*
X139086488Y-90876073D01*
X138937188Y-90846376D01*
X138773216Y-90778456D01*
X138625646Y-90679853D01*
X138500147Y-90554354D01*
X138401544Y-90406784D01*
X138333624Y-90242812D01*
X138299000Y-90068741D01*
X138299000Y-89891259D01*
X138333624Y-89717188D01*
X138401544Y-89553216D01*
X138500147Y-89405646D01*
X138625646Y-89280147D01*
X138773216Y-89181544D01*
X138937188Y-89113624D01*
X139086488Y-89083927D01*
X139111258Y-89079000D01*
X139288742Y-89079000D01*
X139313512Y-89083927D01*
G37*
G36*
X124113512Y-86543927D02*
G01*
X124262812Y-86573624D01*
X124426784Y-86641544D01*
X124574354Y-86740147D01*
X124699853Y-86865646D01*
X124798456Y-87013216D01*
X124866376Y-87177188D01*
X124901000Y-87351259D01*
X124901000Y-87528741D01*
X124866376Y-87702812D01*
X124798456Y-87866784D01*
X124699853Y-88014354D01*
X124574354Y-88139853D01*
X124426784Y-88238456D01*
X124262812Y-88306376D01*
X124113512Y-88336073D01*
X124088742Y-88341000D01*
X123911258Y-88341000D01*
X123886488Y-88336073D01*
X123737188Y-88306376D01*
X123573216Y-88238456D01*
X123425646Y-88139853D01*
X123300147Y-88014354D01*
X123201544Y-87866784D01*
X123133624Y-87702812D01*
X123099000Y-87528741D01*
X123099000Y-87351259D01*
X123133624Y-87177188D01*
X123201544Y-87013216D01*
X123300147Y-86865646D01*
X123425646Y-86740147D01*
X123573216Y-86641544D01*
X123737188Y-86573624D01*
X123886488Y-86543927D01*
X123911258Y-86539000D01*
X124088742Y-86539000D01*
X124113512Y-86543927D01*
G37*
G36*
X139313512Y-86543927D02*
G01*
X139462812Y-86573624D01*
X139626784Y-86641544D01*
X139774354Y-86740147D01*
X139899853Y-86865646D01*
X139998456Y-87013216D01*
X140066376Y-87177188D01*
X140101000Y-87351259D01*
X140101000Y-87528741D01*
X140066376Y-87702812D01*
X139998456Y-87866784D01*
X139899853Y-88014354D01*
X139774354Y-88139853D01*
X139626784Y-88238456D01*
X139462812Y-88306376D01*
X139313512Y-88336073D01*
X139288742Y-88341000D01*
X139111258Y-88341000D01*
X139086488Y-88336073D01*
X138937188Y-88306376D01*
X138773216Y-88238456D01*
X138625646Y-88139853D01*
X138500147Y-88014354D01*
X138401544Y-87866784D01*
X138333624Y-87702812D01*
X138299000Y-87528741D01*
X138299000Y-87351259D01*
X138333624Y-87177188D01*
X138401544Y-87013216D01*
X138500147Y-86865646D01*
X138625646Y-86740147D01*
X138773216Y-86641544D01*
X138937188Y-86573624D01*
X139086488Y-86543927D01*
X139111258Y-86539000D01*
X139288742Y-86539000D01*
X139313512Y-86543927D01*
G37*
G36*
X120515915Y-84414306D02*
G01*
X120688986Y-84485994D01*
X120766338Y-84537679D01*
X120844747Y-84590070D01*
X120977210Y-84722533D01*
X120977211Y-84722535D01*
X121081286Y-84878294D01*
X121152974Y-85051365D01*
X121189520Y-85235093D01*
X121189520Y-85422427D01*
X121152974Y-85606155D01*
X121081286Y-85779226D01*
X121081285Y-85779227D01*
X120977210Y-85934987D01*
X120844747Y-86067450D01*
X120766338Y-86119841D01*
X120688986Y-86171526D01*
X120515915Y-86243214D01*
X120332187Y-86279760D01*
X120144853Y-86279760D01*
X119961125Y-86243214D01*
X119788054Y-86171526D01*
X119710702Y-86119841D01*
X119632293Y-86067450D01*
X119499830Y-85934987D01*
X119395755Y-85779227D01*
X119395754Y-85779226D01*
X119324066Y-85606155D01*
X119287520Y-85422427D01*
X119287520Y-85235093D01*
X119324066Y-85051365D01*
X119395754Y-84878294D01*
X119499829Y-84722535D01*
X119499830Y-84722533D01*
X119632293Y-84590070D01*
X119710702Y-84537679D01*
X119788054Y-84485994D01*
X119961125Y-84414306D01*
X120144853Y-84377760D01*
X120332187Y-84377760D01*
X120515915Y-84414306D01*
G37*
G36*
X145631435Y-84414306D02*
G01*
X145804506Y-84485994D01*
X145881858Y-84537679D01*
X145960267Y-84590070D01*
X146092730Y-84722533D01*
X146092731Y-84722535D01*
X146196806Y-84878294D01*
X146268494Y-85051365D01*
X146305040Y-85235093D01*
X146305040Y-85422427D01*
X146268494Y-85606155D01*
X146196806Y-85779226D01*
X146196805Y-85779227D01*
X146092730Y-85934987D01*
X145960267Y-86067450D01*
X145881858Y-86119841D01*
X145804506Y-86171526D01*
X145631435Y-86243214D01*
X145447707Y-86279760D01*
X145260373Y-86279760D01*
X145076645Y-86243214D01*
X144903574Y-86171526D01*
X144826222Y-86119841D01*
X144747813Y-86067450D01*
X144615350Y-85934987D01*
X144511275Y-85779227D01*
X144511274Y-85779226D01*
X144439586Y-85606155D01*
X144403040Y-85422427D01*
X144403040Y-85235093D01*
X144439586Y-85051365D01*
X144511274Y-84878294D01*
X144615349Y-84722535D01*
X144615350Y-84722533D01*
X144747813Y-84590070D01*
X144826222Y-84537679D01*
X144903574Y-84485994D01*
X145076645Y-84414306D01*
X145260373Y-84377760D01*
X145447707Y-84377760D01*
X145631435Y-84414306D01*
G37*
G36*
X124113512Y-84003927D02*
G01*
X124262812Y-84033624D01*
X124426784Y-84101544D01*
X124574354Y-84200147D01*
X124699853Y-84325646D01*
X124798456Y-84473216D01*
X124866376Y-84637188D01*
X124883352Y-84722535D01*
X124898254Y-84797451D01*
X124901000Y-84811259D01*
X124901000Y-84988741D01*
X124866376Y-85162812D01*
X124798456Y-85326784D01*
X124699853Y-85474354D01*
X124574354Y-85599853D01*
X124426784Y-85698456D01*
X124262812Y-85766376D01*
X124113512Y-85796073D01*
X124088742Y-85801000D01*
X123911258Y-85801000D01*
X123886488Y-85796073D01*
X123737188Y-85766376D01*
X123573216Y-85698456D01*
X123425646Y-85599853D01*
X123300147Y-85474354D01*
X123201544Y-85326784D01*
X123133624Y-85162812D01*
X123099000Y-84988741D01*
X123099000Y-84811259D01*
X123101747Y-84797451D01*
X123116648Y-84722535D01*
X123133624Y-84637188D01*
X123201544Y-84473216D01*
X123300147Y-84325646D01*
X123425646Y-84200147D01*
X123573216Y-84101544D01*
X123737188Y-84033624D01*
X123886488Y-84003927D01*
X123911258Y-83999000D01*
X124088742Y-83999000D01*
X124113512Y-84003927D01*
G37*
G36*
X139313512Y-84003927D02*
G01*
X139462812Y-84033624D01*
X139626784Y-84101544D01*
X139774354Y-84200147D01*
X139899853Y-84325646D01*
X139998456Y-84473216D01*
X140066376Y-84637188D01*
X140083352Y-84722535D01*
X140098254Y-84797451D01*
X140101000Y-84811259D01*
X140101000Y-84988741D01*
X140066376Y-85162812D01*
X139998456Y-85326784D01*
X139899853Y-85474354D01*
X139774354Y-85599853D01*
X139626784Y-85698456D01*
X139462812Y-85766376D01*
X139313512Y-85796073D01*
X139288742Y-85801000D01*
X139111258Y-85801000D01*
X139086488Y-85796073D01*
X138937188Y-85766376D01*
X138773216Y-85698456D01*
X138625646Y-85599853D01*
X138500147Y-85474354D01*
X138401544Y-85326784D01*
X138333624Y-85162812D01*
X138299000Y-84988741D01*
X138299000Y-84811259D01*
X138301747Y-84797451D01*
X138316648Y-84722535D01*
X138333624Y-84637188D01*
X138401544Y-84473216D01*
X138500147Y-84325646D01*
X138625646Y-84200147D01*
X138773216Y-84101544D01*
X138937188Y-84033624D01*
X139086488Y-84003927D01*
X139111258Y-83999000D01*
X139288742Y-83999000D01*
X139313512Y-84003927D01*
G37*
G36*
X143091435Y-83144306D02*
G01*
X143264506Y-83215994D01*
X143331862Y-83261000D01*
X143420267Y-83320070D01*
X143552730Y-83452533D01*
X143552731Y-83452535D01*
X143656806Y-83608294D01*
X143728494Y-83781365D01*
X143765040Y-83965093D01*
X143765040Y-84152427D01*
X143728494Y-84336155D01*
X143656806Y-84509226D01*
X143656805Y-84509227D01*
X143552730Y-84664987D01*
X143420267Y-84797450D01*
X143399600Y-84811259D01*
X143264506Y-84901526D01*
X143091435Y-84973214D01*
X142907707Y-85009760D01*
X142720373Y-85009760D01*
X142536645Y-84973214D01*
X142363574Y-84901526D01*
X142228480Y-84811259D01*
X142207813Y-84797450D01*
X142075350Y-84664987D01*
X141971275Y-84509227D01*
X141971274Y-84509226D01*
X141899586Y-84336155D01*
X141863040Y-84152427D01*
X141863040Y-83965093D01*
X141899586Y-83781365D01*
X141971274Y-83608294D01*
X142075349Y-83452535D01*
X142075350Y-83452533D01*
X142207813Y-83320070D01*
X142296218Y-83261000D01*
X142363574Y-83215994D01*
X142536645Y-83144306D01*
X142720373Y-83107760D01*
X142907707Y-83107760D01*
X143091435Y-83144306D01*
G37*
G36*
X117975915Y-83144306D02*
G01*
X118148986Y-83215994D01*
X118216342Y-83261000D01*
X118304747Y-83320070D01*
X118437210Y-83452533D01*
X118437211Y-83452535D01*
X118541286Y-83608294D01*
X118612974Y-83781365D01*
X118649520Y-83965093D01*
X118649520Y-84152427D01*
X118612974Y-84336155D01*
X118541286Y-84509226D01*
X118541285Y-84509227D01*
X118437210Y-84664987D01*
X118304747Y-84797450D01*
X118284080Y-84811259D01*
X118148986Y-84901526D01*
X117975915Y-84973214D01*
X117792187Y-85009760D01*
X117604853Y-85009760D01*
X117421125Y-84973214D01*
X117248054Y-84901526D01*
X117112960Y-84811259D01*
X117092293Y-84797450D01*
X116959830Y-84664987D01*
X116855755Y-84509227D01*
X116855754Y-84509226D01*
X116784066Y-84336155D01*
X116747520Y-84152427D01*
X116747520Y-83965093D01*
X116784066Y-83781365D01*
X116855754Y-83608294D01*
X116959829Y-83452535D01*
X116959830Y-83452533D01*
X117092293Y-83320070D01*
X117180698Y-83261000D01*
X117248054Y-83215994D01*
X117421125Y-83144306D01*
X117604853Y-83107760D01*
X117792187Y-83107760D01*
X117975915Y-83144306D01*
G37*
G36*
X145631435Y-81874306D02*
G01*
X145804506Y-81945994D01*
X145804507Y-81945995D01*
X145960267Y-82050070D01*
X146092730Y-82182533D01*
X146092731Y-82182535D01*
X146196806Y-82338294D01*
X146268494Y-82511365D01*
X146305040Y-82695093D01*
X146305040Y-82882427D01*
X146268494Y-83066155D01*
X146196806Y-83239226D01*
X146196805Y-83239227D01*
X146092730Y-83394987D01*
X145960267Y-83527450D01*
X145881858Y-83579841D01*
X145804506Y-83631526D01*
X145631435Y-83703214D01*
X145447707Y-83739760D01*
X145260373Y-83739760D01*
X145076645Y-83703214D01*
X144903574Y-83631526D01*
X144826222Y-83579841D01*
X144747813Y-83527450D01*
X144615350Y-83394987D01*
X144511275Y-83239227D01*
X144511274Y-83239226D01*
X144439586Y-83066155D01*
X144403040Y-82882427D01*
X144403040Y-82695093D01*
X144439586Y-82511365D01*
X144511274Y-82338294D01*
X144615349Y-82182535D01*
X144615350Y-82182533D01*
X144747813Y-82050070D01*
X144903573Y-81945995D01*
X144903574Y-81945994D01*
X145076645Y-81874306D01*
X145260373Y-81837760D01*
X145447707Y-81837760D01*
X145631435Y-81874306D01*
G37*
G36*
X120515915Y-81874306D02*
G01*
X120688986Y-81945994D01*
X120688987Y-81945995D01*
X120844747Y-82050070D01*
X120977210Y-82182533D01*
X120977211Y-82182535D01*
X121081286Y-82338294D01*
X121152974Y-82511365D01*
X121189520Y-82695093D01*
X121189520Y-82882427D01*
X121152974Y-83066155D01*
X121081286Y-83239226D01*
X121081285Y-83239227D01*
X120977210Y-83394987D01*
X120844747Y-83527450D01*
X120766338Y-83579841D01*
X120688986Y-83631526D01*
X120515915Y-83703214D01*
X120332187Y-83739760D01*
X120144853Y-83739760D01*
X119961125Y-83703214D01*
X119788054Y-83631526D01*
X119710702Y-83579841D01*
X119632293Y-83527450D01*
X119499830Y-83394987D01*
X119395755Y-83239227D01*
X119395754Y-83239226D01*
X119324066Y-83066155D01*
X119287520Y-82882427D01*
X119287520Y-82695093D01*
X119324066Y-82511365D01*
X119395754Y-82338294D01*
X119499829Y-82182535D01*
X119499830Y-82182533D01*
X119632293Y-82050070D01*
X119788053Y-81945995D01*
X119788054Y-81945994D01*
X119961125Y-81874306D01*
X120144853Y-81837760D01*
X120332187Y-81837760D01*
X120515915Y-81874306D01*
G37*
G36*
X139313512Y-81463927D02*
G01*
X139462812Y-81493624D01*
X139626784Y-81561544D01*
X139774354Y-81660147D01*
X139899853Y-81785646D01*
X139998456Y-81933216D01*
X140066376Y-82097188D01*
X140101000Y-82271259D01*
X140101000Y-82448741D01*
X140066376Y-82622812D01*
X139998456Y-82786784D01*
X139899853Y-82934354D01*
X139774354Y-83059853D01*
X139626784Y-83158456D01*
X139462812Y-83226376D01*
X139313512Y-83256073D01*
X139288742Y-83261000D01*
X139111258Y-83261000D01*
X139086488Y-83256073D01*
X138937188Y-83226376D01*
X138773216Y-83158456D01*
X138625646Y-83059853D01*
X138500147Y-82934354D01*
X138401544Y-82786784D01*
X138333624Y-82622812D01*
X138299000Y-82448741D01*
X138299000Y-82271259D01*
X138333624Y-82097188D01*
X138401544Y-81933216D01*
X138500147Y-81785646D01*
X138625646Y-81660147D01*
X138773216Y-81561544D01*
X138937188Y-81493624D01*
X139086488Y-81463927D01*
X139111258Y-81459000D01*
X139288742Y-81459000D01*
X139313512Y-81463927D01*
G37*
G36*
X124113512Y-81463927D02*
G01*
X124262812Y-81493624D01*
X124426784Y-81561544D01*
X124574354Y-81660147D01*
X124699853Y-81785646D01*
X124798456Y-81933216D01*
X124866376Y-82097188D01*
X124901000Y-82271259D01*
X124901000Y-82448741D01*
X124866376Y-82622812D01*
X124798456Y-82786784D01*
X124699853Y-82934354D01*
X124574354Y-83059853D01*
X124426784Y-83158456D01*
X124262812Y-83226376D01*
X124113512Y-83256073D01*
X124088742Y-83261000D01*
X123911258Y-83261000D01*
X123886488Y-83256073D01*
X123737188Y-83226376D01*
X123573216Y-83158456D01*
X123425646Y-83059853D01*
X123300147Y-82934354D01*
X123201544Y-82786784D01*
X123133624Y-82622812D01*
X123099000Y-82448741D01*
X123099000Y-82271259D01*
X123133624Y-82097188D01*
X123201544Y-81933216D01*
X123300147Y-81785646D01*
X123425646Y-81660147D01*
X123573216Y-81561544D01*
X123737188Y-81493624D01*
X123886488Y-81463927D01*
X123911258Y-81459000D01*
X124088742Y-81459000D01*
X124113512Y-81463927D01*
G37*
G36*
X119732177Y-79348493D02*
G01*
X119877958Y-79408878D01*
X119877959Y-79408879D01*
X120009160Y-79496544D01*
X120120736Y-79608120D01*
X120120737Y-79608122D01*
X120208402Y-79739322D01*
X120268787Y-79885103D01*
X120299570Y-80039862D01*
X120299570Y-80197658D01*
X120268787Y-80352417D01*
X120208402Y-80498198D01*
X120186385Y-80531149D01*
X120120736Y-80629400D01*
X120009160Y-80740976D01*
X119943114Y-80785106D01*
X119877958Y-80828642D01*
X119732177Y-80889027D01*
X119577418Y-80919810D01*
X119419622Y-80919810D01*
X119264863Y-80889027D01*
X119119082Y-80828642D01*
X119053926Y-80785106D01*
X118987880Y-80740976D01*
X118876304Y-80629400D01*
X118876302Y-80629397D01*
X118873568Y-80626663D01*
X118862906Y-80613672D01*
X118843964Y-80598127D01*
X118822353Y-80586576D01*
X118798904Y-80579463D01*
X118774518Y-80577061D01*
X118750132Y-80579463D01*
X118726683Y-80586576D01*
X118705073Y-80598127D01*
X118686131Y-80613673D01*
X118670586Y-80632615D01*
X118659035Y-80654226D01*
X118651922Y-80677675D01*
X118649520Y-80702060D01*
X118649520Y-82469760D01*
X116747520Y-82469760D01*
X116747520Y-80567760D01*
X118630377Y-80567760D01*
X118654763Y-80565358D01*
X118678212Y-80558245D01*
X118699823Y-80546694D01*
X118718765Y-80531149D01*
X118734310Y-80512207D01*
X118745861Y-80490596D01*
X118752974Y-80467147D01*
X118755376Y-80442761D01*
X118752974Y-80418375D01*
X118745861Y-80394925D01*
X118728253Y-80352415D01*
X118697470Y-80197658D01*
X118697470Y-80039862D01*
X118728253Y-79885103D01*
X118788638Y-79739322D01*
X118876303Y-79608122D01*
X118876304Y-79608120D01*
X118987880Y-79496544D01*
X119119081Y-79408879D01*
X119119082Y-79408878D01*
X119264863Y-79348493D01*
X119419622Y-79317710D01*
X119577418Y-79317710D01*
X119732177Y-79348493D01*
G37*
G36*
X144847697Y-79348493D02*
G01*
X144993478Y-79408878D01*
X144993479Y-79408879D01*
X145124680Y-79496544D01*
X145236256Y-79608120D01*
X145236257Y-79608122D01*
X145323922Y-79739322D01*
X145384307Y-79885103D01*
X145415090Y-80039862D01*
X145415090Y-80197658D01*
X145384307Y-80352417D01*
X145323922Y-80498198D01*
X145301905Y-80531149D01*
X145236256Y-80629400D01*
X145124680Y-80740976D01*
X145058634Y-80785106D01*
X144993478Y-80828642D01*
X144847697Y-80889027D01*
X144692938Y-80919810D01*
X144535142Y-80919810D01*
X144380383Y-80889027D01*
X144234602Y-80828642D01*
X144169446Y-80785106D01*
X144103400Y-80740976D01*
X143991824Y-80629400D01*
X143991822Y-80629397D01*
X143989088Y-80626663D01*
X143978426Y-80613672D01*
X143959484Y-80598127D01*
X143937873Y-80586576D01*
X143914424Y-80579463D01*
X143890038Y-80577061D01*
X143865652Y-80579463D01*
X143842203Y-80586576D01*
X143820593Y-80598127D01*
X143801651Y-80613673D01*
X143786106Y-80632615D01*
X143774555Y-80654226D01*
X143767442Y-80677675D01*
X143765040Y-80702060D01*
X143765040Y-82469760D01*
X141863040Y-82469760D01*
X141863040Y-80567760D01*
X143745897Y-80567760D01*
X143770283Y-80565358D01*
X143793732Y-80558245D01*
X143815343Y-80546694D01*
X143834285Y-80531149D01*
X143849830Y-80512207D01*
X143861381Y-80490596D01*
X143868494Y-80467147D01*
X143870896Y-80442761D01*
X143868494Y-80418375D01*
X143861381Y-80394925D01*
X143843773Y-80352415D01*
X143812990Y-80197658D01*
X143812990Y-80039862D01*
X143843773Y-79885103D01*
X143904158Y-79739322D01*
X143991823Y-79608122D01*
X143991824Y-79608120D01*
X144103400Y-79496544D01*
X144234601Y-79408879D01*
X144234602Y-79408878D01*
X144380383Y-79348493D01*
X144535142Y-79317710D01*
X144692938Y-79317710D01*
X144847697Y-79348493D01*
G37*
G36*
X139313512Y-78923927D02*
G01*
X139462812Y-78953624D01*
X139626784Y-79021544D01*
X139774354Y-79120147D01*
X139899853Y-79245646D01*
X139998456Y-79393216D01*
X140066376Y-79557188D01*
X140101000Y-79731259D01*
X140101000Y-79908741D01*
X140066376Y-80082812D01*
X139998456Y-80246784D01*
X139899853Y-80394354D01*
X139774354Y-80519853D01*
X139626784Y-80618456D01*
X139462812Y-80686376D01*
X139313512Y-80716073D01*
X139288742Y-80721000D01*
X139111258Y-80721000D01*
X139086488Y-80716073D01*
X138937188Y-80686376D01*
X138773216Y-80618456D01*
X138625646Y-80519853D01*
X138500147Y-80394354D01*
X138401544Y-80246784D01*
X138333624Y-80082812D01*
X138299000Y-79908741D01*
X138299000Y-79731259D01*
X138333624Y-79557188D01*
X138401544Y-79393216D01*
X138500147Y-79245646D01*
X138625646Y-79120147D01*
X138773216Y-79021544D01*
X138937188Y-78953624D01*
X139086488Y-78923927D01*
X139111258Y-78919000D01*
X139288742Y-78919000D01*
X139313512Y-78923927D01*
G37*
G36*
X124113512Y-78923927D02*
G01*
X124262812Y-78953624D01*
X124426784Y-79021544D01*
X124574354Y-79120147D01*
X124699853Y-79245646D01*
X124798456Y-79393216D01*
X124866376Y-79557188D01*
X124901000Y-79731259D01*
X124901000Y-79908741D01*
X124866376Y-80082812D01*
X124798456Y-80246784D01*
X124699853Y-80394354D01*
X124574354Y-80519853D01*
X124426784Y-80618456D01*
X124262812Y-80686376D01*
X124113512Y-80716073D01*
X124088742Y-80721000D01*
X123911258Y-80721000D01*
X123886488Y-80716073D01*
X123737188Y-80686376D01*
X123573216Y-80618456D01*
X123425646Y-80519853D01*
X123300147Y-80394354D01*
X123201544Y-80246784D01*
X123133624Y-80082812D01*
X123099000Y-79908741D01*
X123099000Y-79731259D01*
X123133624Y-79557188D01*
X123201544Y-79393216D01*
X123300147Y-79245646D01*
X123425646Y-79120147D01*
X123573216Y-79021544D01*
X123737188Y-78953624D01*
X123886488Y-78923927D01*
X123911258Y-78919000D01*
X124088742Y-78919000D01*
X124113512Y-78923927D01*
G37*
G36*
X124113512Y-76383927D02*
G01*
X124262812Y-76413624D01*
X124426784Y-76481544D01*
X124574354Y-76580147D01*
X124699853Y-76705646D01*
X124798456Y-76853216D01*
X124866376Y-77017188D01*
X124901000Y-77191259D01*
X124901000Y-77368741D01*
X124866376Y-77542812D01*
X124798456Y-77706784D01*
X124699853Y-77854354D01*
X124574354Y-77979853D01*
X124426784Y-78078456D01*
X124262812Y-78146376D01*
X124113512Y-78176073D01*
X124088742Y-78181000D01*
X123911258Y-78181000D01*
X123886488Y-78176073D01*
X123737188Y-78146376D01*
X123573216Y-78078456D01*
X123425646Y-77979853D01*
X123300147Y-77854354D01*
X123201544Y-77706784D01*
X123133624Y-77542812D01*
X123099000Y-77368741D01*
X123099000Y-77191259D01*
X123133624Y-77017188D01*
X123201544Y-76853216D01*
X123300147Y-76705646D01*
X123425646Y-76580147D01*
X123573216Y-76481544D01*
X123737188Y-76413624D01*
X123886488Y-76383927D01*
X123911258Y-76379000D01*
X124088742Y-76379000D01*
X124113512Y-76383927D01*
G37*
G36*
X139313512Y-76383927D02*
G01*
X139462812Y-76413624D01*
X139626784Y-76481544D01*
X139774354Y-76580147D01*
X139899853Y-76705646D01*
X139998456Y-76853216D01*
X140066376Y-77017188D01*
X140101000Y-77191259D01*
X140101000Y-77368741D01*
X140066376Y-77542812D01*
X139998456Y-77706784D01*
X139899853Y-77854354D01*
X139774354Y-77979853D01*
X139626784Y-78078456D01*
X139462812Y-78146376D01*
X139313512Y-78176073D01*
X139288742Y-78181000D01*
X139111258Y-78181000D01*
X139086488Y-78176073D01*
X138937188Y-78146376D01*
X138773216Y-78078456D01*
X138625646Y-77979853D01*
X138500147Y-77854354D01*
X138401544Y-77706784D01*
X138333624Y-77542812D01*
X138299000Y-77368741D01*
X138299000Y-77191259D01*
X138333624Y-77017188D01*
X138401544Y-76853216D01*
X138500147Y-76705646D01*
X138625646Y-76580147D01*
X138773216Y-76481544D01*
X138937188Y-76413624D01*
X139086488Y-76383927D01*
X139111258Y-76379000D01*
X139288742Y-76379000D01*
X139313512Y-76383927D01*
G37*
G36*
X145631435Y-75737666D02*
G01*
X145804506Y-75809354D01*
X145881858Y-75861039D01*
X145960267Y-75913430D01*
X146092730Y-76045893D01*
X146092731Y-76045895D01*
X146196806Y-76201654D01*
X146268494Y-76374725D01*
X146305040Y-76558453D01*
X146305040Y-76745787D01*
X146268494Y-76929515D01*
X146196806Y-77102586D01*
X146196805Y-77102587D01*
X146092730Y-77258347D01*
X145960267Y-77390810D01*
X145881858Y-77443201D01*
X145804506Y-77494886D01*
X145631435Y-77566574D01*
X145447707Y-77603120D01*
X145260373Y-77603120D01*
X145076645Y-77566574D01*
X144903574Y-77494886D01*
X144826222Y-77443201D01*
X144747813Y-77390810D01*
X144615350Y-77258347D01*
X144511275Y-77102587D01*
X144511274Y-77102586D01*
X144439586Y-76929515D01*
X144403040Y-76745787D01*
X144403040Y-76558453D01*
X144439586Y-76374725D01*
X144511274Y-76201654D01*
X144615349Y-76045895D01*
X144615350Y-76045893D01*
X144747813Y-75913430D01*
X144826222Y-75861039D01*
X144903574Y-75809354D01*
X145076645Y-75737666D01*
X145260373Y-75701120D01*
X145447707Y-75701120D01*
X145631435Y-75737666D01*
G37*
G36*
X120531155Y-75732586D02*
G01*
X120704226Y-75804274D01*
X120746598Y-75832586D01*
X120859987Y-75908350D01*
X120992450Y-76040813D01*
X121042508Y-76115730D01*
X121096526Y-76196574D01*
X121168214Y-76369645D01*
X121204760Y-76553373D01*
X121204760Y-76740707D01*
X121168214Y-76924435D01*
X121096526Y-77097506D01*
X121093131Y-77102587D01*
X120992450Y-77253267D01*
X120859987Y-77385730D01*
X120781578Y-77438121D01*
X120704226Y-77489806D01*
X120531155Y-77561494D01*
X120347427Y-77598040D01*
X120160093Y-77598040D01*
X119976365Y-77561494D01*
X119803294Y-77489806D01*
X119725942Y-77438121D01*
X119647533Y-77385730D01*
X119515070Y-77253267D01*
X119414389Y-77102587D01*
X119410994Y-77097506D01*
X119339306Y-76924435D01*
X119302760Y-76740707D01*
X119302760Y-76553373D01*
X119339306Y-76369645D01*
X119410994Y-76196574D01*
X119465012Y-76115730D01*
X119515070Y-76040813D01*
X119647533Y-75908350D01*
X119760922Y-75832586D01*
X119803294Y-75804274D01*
X119976365Y-75732586D01*
X120160093Y-75696040D01*
X120347427Y-75696040D01*
X120531155Y-75732586D01*
G37*
G36*
X143091435Y-74467666D02*
G01*
X143264506Y-74539354D01*
X143341858Y-74591039D01*
X143420267Y-74643430D01*
X143552730Y-74775893D01*
X143552731Y-74775895D01*
X143656806Y-74931654D01*
X143728494Y-75104725D01*
X143765040Y-75288453D01*
X143765040Y-75475787D01*
X143728494Y-75659515D01*
X143656806Y-75832586D01*
X143656805Y-75832587D01*
X143552730Y-75988347D01*
X143420267Y-76120810D01*
X143341858Y-76173201D01*
X143264506Y-76224886D01*
X143091435Y-76296574D01*
X142907707Y-76333120D01*
X142720373Y-76333120D01*
X142536645Y-76296574D01*
X142363574Y-76224886D01*
X142286222Y-76173201D01*
X142207813Y-76120810D01*
X142075350Y-75988347D01*
X141971275Y-75832587D01*
X141971274Y-75832586D01*
X141899586Y-75659515D01*
X141863040Y-75475787D01*
X141863040Y-75288453D01*
X141899586Y-75104725D01*
X141971274Y-74931654D01*
X142075349Y-74775895D01*
X142075350Y-74775893D01*
X142207813Y-74643430D01*
X142286222Y-74591039D01*
X142363574Y-74539354D01*
X142536645Y-74467666D01*
X142720373Y-74431120D01*
X142907707Y-74431120D01*
X143091435Y-74467666D01*
G37*
G36*
X117991155Y-74462586D02*
G01*
X118164226Y-74534274D01*
X118206598Y-74562586D01*
X118319987Y-74638350D01*
X118452450Y-74770813D01*
X118491156Y-74828741D01*
X118556526Y-74926574D01*
X118628214Y-75099645D01*
X118664760Y-75283373D01*
X118664760Y-75470707D01*
X118628214Y-75654435D01*
X118556526Y-75827506D01*
X118553131Y-75832587D01*
X118452450Y-75983267D01*
X118319987Y-76115730D01*
X118241578Y-76168121D01*
X118164226Y-76219806D01*
X117991155Y-76291494D01*
X117807427Y-76328040D01*
X117620093Y-76328040D01*
X117436365Y-76291494D01*
X117263294Y-76219806D01*
X117185942Y-76168121D01*
X117107533Y-76115730D01*
X116975070Y-75983267D01*
X116874389Y-75832587D01*
X116870994Y-75827506D01*
X116799306Y-75654435D01*
X116762760Y-75470707D01*
X116762760Y-75283373D01*
X116799306Y-75099645D01*
X116870994Y-74926574D01*
X116936364Y-74828741D01*
X116975070Y-74770813D01*
X117107533Y-74638350D01*
X117220922Y-74562586D01*
X117263294Y-74534274D01*
X117436365Y-74462586D01*
X117620093Y-74426040D01*
X117807427Y-74426040D01*
X117991155Y-74462586D01*
G37*
G36*
X139313512Y-73843927D02*
G01*
X139462812Y-73873624D01*
X139626784Y-73941544D01*
X139774354Y-74040147D01*
X139899853Y-74165646D01*
X139998456Y-74313216D01*
X140066376Y-74477188D01*
X140101000Y-74651259D01*
X140101000Y-74828741D01*
X140066376Y-75002812D01*
X139998456Y-75166784D01*
X139899853Y-75314354D01*
X139774354Y-75439853D01*
X139626784Y-75538456D01*
X139462812Y-75606376D01*
X139313512Y-75636073D01*
X139288742Y-75641000D01*
X139111258Y-75641000D01*
X139086488Y-75636073D01*
X138937188Y-75606376D01*
X138773216Y-75538456D01*
X138625646Y-75439853D01*
X138500147Y-75314354D01*
X138401544Y-75166784D01*
X138333624Y-75002812D01*
X138299000Y-74828741D01*
X138299000Y-74651259D01*
X138333624Y-74477188D01*
X138401544Y-74313216D01*
X138500147Y-74165646D01*
X138625646Y-74040147D01*
X138773216Y-73941544D01*
X138937188Y-73873624D01*
X139086488Y-73843927D01*
X139111258Y-73839000D01*
X139288742Y-73839000D01*
X139313512Y-73843927D01*
G37*
G36*
X124113512Y-73843927D02*
G01*
X124262812Y-73873624D01*
X124426784Y-73941544D01*
X124574354Y-74040147D01*
X124699853Y-74165646D01*
X124798456Y-74313216D01*
X124866376Y-74477188D01*
X124901000Y-74651259D01*
X124901000Y-74828741D01*
X124866376Y-75002812D01*
X124798456Y-75166784D01*
X124699853Y-75314354D01*
X124574354Y-75439853D01*
X124426784Y-75538456D01*
X124262812Y-75606376D01*
X124113512Y-75636073D01*
X124088742Y-75641000D01*
X123911258Y-75641000D01*
X123886488Y-75636073D01*
X123737188Y-75606376D01*
X123573216Y-75538456D01*
X123425646Y-75439853D01*
X123300147Y-75314354D01*
X123201544Y-75166784D01*
X123133624Y-75002812D01*
X123099000Y-74828741D01*
X123099000Y-74651259D01*
X123133624Y-74477188D01*
X123201544Y-74313216D01*
X123300147Y-74165646D01*
X123425646Y-74040147D01*
X123573216Y-73941544D01*
X123737188Y-73873624D01*
X123886488Y-73843927D01*
X123911258Y-73839000D01*
X124088742Y-73839000D01*
X124113512Y-73843927D01*
G37*
G36*
X145631435Y-73197666D02*
G01*
X145804506Y-73269354D01*
X145804507Y-73269355D01*
X145960267Y-73373430D01*
X146092730Y-73505893D01*
X146092731Y-73505895D01*
X146196806Y-73661654D01*
X146268494Y-73834725D01*
X146305040Y-74018453D01*
X146305040Y-74205787D01*
X146268494Y-74389515D01*
X146196806Y-74562586D01*
X146196805Y-74562587D01*
X146092730Y-74718347D01*
X145960267Y-74850810D01*
X145881858Y-74903201D01*
X145804506Y-74954886D01*
X145631435Y-75026574D01*
X145447707Y-75063120D01*
X145260373Y-75063120D01*
X145076645Y-75026574D01*
X144903574Y-74954886D01*
X144826222Y-74903201D01*
X144747813Y-74850810D01*
X144615350Y-74718347D01*
X144511275Y-74562587D01*
X144511274Y-74562586D01*
X144439586Y-74389515D01*
X144403040Y-74205787D01*
X144403040Y-74018453D01*
X144439586Y-73834725D01*
X144511274Y-73661654D01*
X144615349Y-73505895D01*
X144615350Y-73505893D01*
X144747813Y-73373430D01*
X144903573Y-73269355D01*
X144903574Y-73269354D01*
X145076645Y-73197666D01*
X145260373Y-73161120D01*
X145447707Y-73161120D01*
X145631435Y-73197666D01*
G37*
G36*
X120531155Y-73192586D02*
G01*
X120704226Y-73264274D01*
X120711830Y-73269355D01*
X120859987Y-73368350D01*
X120992450Y-73500813D01*
X121044841Y-73579222D01*
X121096526Y-73656574D01*
X121168214Y-73829645D01*
X121204760Y-74013373D01*
X121204760Y-74200707D01*
X121168214Y-74384435D01*
X121096526Y-74557506D01*
X121093131Y-74562587D01*
X120992450Y-74713267D01*
X120859987Y-74845730D01*
X120781578Y-74898121D01*
X120704226Y-74949806D01*
X120531155Y-75021494D01*
X120347427Y-75058040D01*
X120160093Y-75058040D01*
X119976365Y-75021494D01*
X119803294Y-74949806D01*
X119725942Y-74898121D01*
X119647533Y-74845730D01*
X119515070Y-74713267D01*
X119414389Y-74562587D01*
X119410994Y-74557506D01*
X119339306Y-74384435D01*
X119302760Y-74200707D01*
X119302760Y-74013373D01*
X119339306Y-73829645D01*
X119410994Y-73656574D01*
X119462679Y-73579222D01*
X119515070Y-73500813D01*
X119647533Y-73368350D01*
X119795690Y-73269355D01*
X119803294Y-73264274D01*
X119976365Y-73192586D01*
X120160093Y-73156040D01*
X120347427Y-73156040D01*
X120531155Y-73192586D01*
G37*
G36*
X144847697Y-70671853D02*
G01*
X144993478Y-70732238D01*
X144993479Y-70732239D01*
X145124680Y-70819904D01*
X145236256Y-70931480D01*
X145236257Y-70931482D01*
X145323922Y-71062682D01*
X145384307Y-71208463D01*
X145415090Y-71363222D01*
X145415090Y-71521018D01*
X145384307Y-71675777D01*
X145323922Y-71821558D01*
X145323921Y-71821559D01*
X145236256Y-71952760D01*
X145124680Y-72064336D01*
X145058634Y-72108466D01*
X144993478Y-72152002D01*
X144847697Y-72212387D01*
X144692938Y-72243170D01*
X144535142Y-72243170D01*
X144380383Y-72212387D01*
X144234602Y-72152002D01*
X144169446Y-72108466D01*
X144103400Y-72064336D01*
X143991824Y-71952760D01*
X143991822Y-71952757D01*
X143989088Y-71950023D01*
X143978426Y-71937032D01*
X143959484Y-71921487D01*
X143937873Y-71909936D01*
X143914424Y-71902823D01*
X143890038Y-71900421D01*
X143865652Y-71902823D01*
X143842203Y-71909936D01*
X143820593Y-71921487D01*
X143801651Y-71937033D01*
X143786106Y-71955975D01*
X143774555Y-71977586D01*
X143767442Y-72001035D01*
X143765040Y-72025420D01*
X143765040Y-73793120D01*
X141863040Y-73793120D01*
X141863040Y-71891120D01*
X143745897Y-71891120D01*
X143770283Y-71888718D01*
X143793732Y-71881605D01*
X143815343Y-71870054D01*
X143834285Y-71854509D01*
X143849830Y-71835567D01*
X143861381Y-71813956D01*
X143868494Y-71790507D01*
X143870896Y-71766121D01*
X143868494Y-71741735D01*
X143861381Y-71718285D01*
X143843773Y-71675775D01*
X143812990Y-71521018D01*
X143812990Y-71363222D01*
X143843773Y-71208463D01*
X143904158Y-71062682D01*
X143991823Y-70931482D01*
X143991824Y-70931480D01*
X144103400Y-70819904D01*
X144234601Y-70732239D01*
X144234602Y-70732238D01*
X144380383Y-70671853D01*
X144535142Y-70641070D01*
X144692938Y-70641070D01*
X144847697Y-70671853D01*
G37*
G36*
X119747417Y-70666773D02*
G01*
X119893198Y-70727158D01*
X119900802Y-70732239D01*
X120024400Y-70814824D01*
X120135976Y-70926400D01*
X120180106Y-70992446D01*
X120223642Y-71057602D01*
X120284027Y-71203383D01*
X120314810Y-71358142D01*
X120314810Y-71515938D01*
X120284027Y-71670697D01*
X120223642Y-71816478D01*
X120191238Y-71864974D01*
X120135976Y-71947680D01*
X120024400Y-72059256D01*
X119958354Y-72103386D01*
X119893198Y-72146922D01*
X119747417Y-72207307D01*
X119592658Y-72238090D01*
X119434862Y-72238090D01*
X119280103Y-72207307D01*
X119134322Y-72146922D01*
X119069166Y-72103386D01*
X119003120Y-72059256D01*
X118891544Y-71947680D01*
X118891542Y-71947677D01*
X118888808Y-71944943D01*
X118878146Y-71931952D01*
X118859204Y-71916407D01*
X118837593Y-71904856D01*
X118814144Y-71897743D01*
X118789758Y-71895341D01*
X118765372Y-71897743D01*
X118741923Y-71904856D01*
X118720313Y-71916407D01*
X118701371Y-71931953D01*
X118685826Y-71950895D01*
X118674275Y-71972506D01*
X118667162Y-71995955D01*
X118664760Y-72020340D01*
X118664760Y-73788040D01*
X116762760Y-73788040D01*
X116762760Y-71886040D01*
X118645617Y-71886040D01*
X118670003Y-71883638D01*
X118693452Y-71876525D01*
X118715063Y-71864974D01*
X118734005Y-71849429D01*
X118749550Y-71830487D01*
X118761101Y-71808876D01*
X118768214Y-71785427D01*
X118770616Y-71761041D01*
X118768214Y-71736655D01*
X118761101Y-71713205D01*
X118743493Y-71670695D01*
X118712710Y-71515938D01*
X118712710Y-71358142D01*
X118743493Y-71203383D01*
X118803878Y-71057602D01*
X118847414Y-70992446D01*
X118891544Y-70926400D01*
X119003120Y-70814824D01*
X119126718Y-70732239D01*
X119134322Y-70727158D01*
X119280103Y-70666773D01*
X119434862Y-70635990D01*
X119592658Y-70635990D01*
X119747417Y-70666773D01*
G37*
G36*
X124901000Y-73101000D02*
G01*
X123099000Y-73101000D01*
X123099000Y-71299000D01*
X124901000Y-71299000D01*
X124901000Y-73101000D01*
G37*
G36*
X140101000Y-73101000D02*
G01*
X138299000Y-73101000D01*
X138299000Y-71299000D01*
X140101000Y-71299000D01*
X140101000Y-73101000D01*
G37*
M02*
