G04 #@! TF.GenerationSoftware,KiCad,Pcbnew,5.1.5-52549c5~84~ubuntu18.04.1*
G04 #@! TF.CreationDate,2019-11-19T18:32:17+01:00*
G04 #@! TF.ProjectId,darkroom_tracker,6461726b-726f-46f6-9d5f-747261636b65,rev?*
G04 #@! TF.SameCoordinates,Original*
G04 #@! TF.FileFunction,Paste,Top*
G04 #@! TF.FilePolarity,Positive*
%FSLAX46Y46*%
G04 Gerber Fmt 4.6, Leading zero omitted, Abs format (unit mm)*
G04 Created by KiCad (PCBNEW 5.1.5-52549c5~84~ubuntu18.04.1) date 2019-11-19 18:32:17*
%MOMM*%
%LPD*%
G04 APERTURE LIST*
%ADD10R,0.675000X0.254000*%
%ADD11R,0.254000X0.675000*%
%ADD12C,0.100000*%
%ADD13R,0.550000X1.500000*%
%ADD14R,1.150000X0.700000*%
%ADD15R,0.700000X1.150000*%
%ADD16R,0.700000X0.700000*%
G04 APERTURE END LIST*
D10*
X134387500Y-95250000D03*
D11*
X129750000Y-97662500D03*
D10*
X129612500Y-95250000D03*
D11*
X129750000Y-94337500D03*
D10*
X129612500Y-95750000D03*
X129612500Y-96250000D03*
X129612500Y-96750000D03*
D11*
X130250000Y-94337500D03*
X130750000Y-94337500D03*
X131250000Y-94337500D03*
X131750000Y-94337500D03*
X132250000Y-94337500D03*
X132750000Y-94337500D03*
X133250000Y-94337500D03*
X133750000Y-94337500D03*
X134250000Y-94337500D03*
X130250000Y-97662500D03*
X130750000Y-97662500D03*
X131250000Y-97662500D03*
X131750000Y-97662500D03*
X132250000Y-97662500D03*
X132750000Y-97662500D03*
X133250000Y-97662500D03*
X133750000Y-97662500D03*
X134250000Y-97662500D03*
D10*
X134387500Y-95750000D03*
X134387500Y-96250000D03*
X134387500Y-96750000D03*
D12*
G36*
X128861758Y-87167350D02*
G01*
X128876076Y-87169474D01*
X128890117Y-87172991D01*
X128903746Y-87177868D01*
X128916831Y-87184057D01*
X128929247Y-87191498D01*
X128940873Y-87200121D01*
X128951598Y-87209842D01*
X128961319Y-87220567D01*
X128969942Y-87232193D01*
X128977383Y-87244609D01*
X128983572Y-87257694D01*
X128988449Y-87271323D01*
X128991966Y-87285364D01*
X128994090Y-87299682D01*
X128994800Y-87314140D01*
X128994800Y-87609140D01*
X128994090Y-87623598D01*
X128991966Y-87637916D01*
X128988449Y-87651957D01*
X128983572Y-87665586D01*
X128977383Y-87678671D01*
X128969942Y-87691087D01*
X128961319Y-87702713D01*
X128951598Y-87713438D01*
X128940873Y-87723159D01*
X128929247Y-87731782D01*
X128916831Y-87739223D01*
X128903746Y-87745412D01*
X128890117Y-87750289D01*
X128876076Y-87753806D01*
X128861758Y-87755930D01*
X128847300Y-87756640D01*
X128502300Y-87756640D01*
X128487842Y-87755930D01*
X128473524Y-87753806D01*
X128459483Y-87750289D01*
X128445854Y-87745412D01*
X128432769Y-87739223D01*
X128420353Y-87731782D01*
X128408727Y-87723159D01*
X128398002Y-87713438D01*
X128388281Y-87702713D01*
X128379658Y-87691087D01*
X128372217Y-87678671D01*
X128366028Y-87665586D01*
X128361151Y-87651957D01*
X128357634Y-87637916D01*
X128355510Y-87623598D01*
X128354800Y-87609140D01*
X128354800Y-87314140D01*
X128355510Y-87299682D01*
X128357634Y-87285364D01*
X128361151Y-87271323D01*
X128366028Y-87257694D01*
X128372217Y-87244609D01*
X128379658Y-87232193D01*
X128388281Y-87220567D01*
X128398002Y-87209842D01*
X128408727Y-87200121D01*
X128420353Y-87191498D01*
X128432769Y-87184057D01*
X128445854Y-87177868D01*
X128459483Y-87172991D01*
X128473524Y-87169474D01*
X128487842Y-87167350D01*
X128502300Y-87166640D01*
X128847300Y-87166640D01*
X128861758Y-87167350D01*
G37*
G36*
X128861758Y-86197350D02*
G01*
X128876076Y-86199474D01*
X128890117Y-86202991D01*
X128903746Y-86207868D01*
X128916831Y-86214057D01*
X128929247Y-86221498D01*
X128940873Y-86230121D01*
X128951598Y-86239842D01*
X128961319Y-86250567D01*
X128969942Y-86262193D01*
X128977383Y-86274609D01*
X128983572Y-86287694D01*
X128988449Y-86301323D01*
X128991966Y-86315364D01*
X128994090Y-86329682D01*
X128994800Y-86344140D01*
X128994800Y-86639140D01*
X128994090Y-86653598D01*
X128991966Y-86667916D01*
X128988449Y-86681957D01*
X128983572Y-86695586D01*
X128977383Y-86708671D01*
X128969942Y-86721087D01*
X128961319Y-86732713D01*
X128951598Y-86743438D01*
X128940873Y-86753159D01*
X128929247Y-86761782D01*
X128916831Y-86769223D01*
X128903746Y-86775412D01*
X128890117Y-86780289D01*
X128876076Y-86783806D01*
X128861758Y-86785930D01*
X128847300Y-86786640D01*
X128502300Y-86786640D01*
X128487842Y-86785930D01*
X128473524Y-86783806D01*
X128459483Y-86780289D01*
X128445854Y-86775412D01*
X128432769Y-86769223D01*
X128420353Y-86761782D01*
X128408727Y-86753159D01*
X128398002Y-86743438D01*
X128388281Y-86732713D01*
X128379658Y-86721087D01*
X128372217Y-86708671D01*
X128366028Y-86695586D01*
X128361151Y-86681957D01*
X128357634Y-86667916D01*
X128355510Y-86653598D01*
X128354800Y-86639140D01*
X128354800Y-86344140D01*
X128355510Y-86329682D01*
X128357634Y-86315364D01*
X128361151Y-86301323D01*
X128366028Y-86287694D01*
X128372217Y-86274609D01*
X128379658Y-86262193D01*
X128388281Y-86250567D01*
X128398002Y-86239842D01*
X128408727Y-86230121D01*
X128420353Y-86221498D01*
X128432769Y-86214057D01*
X128445854Y-86207868D01*
X128459483Y-86202991D01*
X128473524Y-86199474D01*
X128487842Y-86197350D01*
X128502300Y-86196640D01*
X128847300Y-86196640D01*
X128861758Y-86197350D01*
G37*
G36*
X128101358Y-93058470D02*
G01*
X128115676Y-93060594D01*
X128129717Y-93064111D01*
X128143346Y-93068988D01*
X128156431Y-93075177D01*
X128168847Y-93082618D01*
X128180473Y-93091241D01*
X128191198Y-93100962D01*
X128200919Y-93111687D01*
X128209542Y-93123313D01*
X128216983Y-93135729D01*
X128223172Y-93148814D01*
X128228049Y-93162443D01*
X128231566Y-93176484D01*
X128233690Y-93190802D01*
X128234400Y-93205260D01*
X128234400Y-93500260D01*
X128233690Y-93514718D01*
X128231566Y-93529036D01*
X128228049Y-93543077D01*
X128223172Y-93556706D01*
X128216983Y-93569791D01*
X128209542Y-93582207D01*
X128200919Y-93593833D01*
X128191198Y-93604558D01*
X128180473Y-93614279D01*
X128168847Y-93622902D01*
X128156431Y-93630343D01*
X128143346Y-93636532D01*
X128129717Y-93641409D01*
X128115676Y-93644926D01*
X128101358Y-93647050D01*
X128086900Y-93647760D01*
X127741900Y-93647760D01*
X127727442Y-93647050D01*
X127713124Y-93644926D01*
X127699083Y-93641409D01*
X127685454Y-93636532D01*
X127672369Y-93630343D01*
X127659953Y-93622902D01*
X127648327Y-93614279D01*
X127637602Y-93604558D01*
X127627881Y-93593833D01*
X127619258Y-93582207D01*
X127611817Y-93569791D01*
X127605628Y-93556706D01*
X127600751Y-93543077D01*
X127597234Y-93529036D01*
X127595110Y-93514718D01*
X127594400Y-93500260D01*
X127594400Y-93205260D01*
X127595110Y-93190802D01*
X127597234Y-93176484D01*
X127600751Y-93162443D01*
X127605628Y-93148814D01*
X127611817Y-93135729D01*
X127619258Y-93123313D01*
X127627881Y-93111687D01*
X127637602Y-93100962D01*
X127648327Y-93091241D01*
X127659953Y-93082618D01*
X127672369Y-93075177D01*
X127685454Y-93068988D01*
X127699083Y-93064111D01*
X127713124Y-93060594D01*
X127727442Y-93058470D01*
X127741900Y-93057760D01*
X128086900Y-93057760D01*
X128101358Y-93058470D01*
G37*
G36*
X128101358Y-94028470D02*
G01*
X128115676Y-94030594D01*
X128129717Y-94034111D01*
X128143346Y-94038988D01*
X128156431Y-94045177D01*
X128168847Y-94052618D01*
X128180473Y-94061241D01*
X128191198Y-94070962D01*
X128200919Y-94081687D01*
X128209542Y-94093313D01*
X128216983Y-94105729D01*
X128223172Y-94118814D01*
X128228049Y-94132443D01*
X128231566Y-94146484D01*
X128233690Y-94160802D01*
X128234400Y-94175260D01*
X128234400Y-94470260D01*
X128233690Y-94484718D01*
X128231566Y-94499036D01*
X128228049Y-94513077D01*
X128223172Y-94526706D01*
X128216983Y-94539791D01*
X128209542Y-94552207D01*
X128200919Y-94563833D01*
X128191198Y-94574558D01*
X128180473Y-94584279D01*
X128168847Y-94592902D01*
X128156431Y-94600343D01*
X128143346Y-94606532D01*
X128129717Y-94611409D01*
X128115676Y-94614926D01*
X128101358Y-94617050D01*
X128086900Y-94617760D01*
X127741900Y-94617760D01*
X127727442Y-94617050D01*
X127713124Y-94614926D01*
X127699083Y-94611409D01*
X127685454Y-94606532D01*
X127672369Y-94600343D01*
X127659953Y-94592902D01*
X127648327Y-94584279D01*
X127637602Y-94574558D01*
X127627881Y-94563833D01*
X127619258Y-94552207D01*
X127611817Y-94539791D01*
X127605628Y-94526706D01*
X127600751Y-94513077D01*
X127597234Y-94499036D01*
X127595110Y-94484718D01*
X127594400Y-94470260D01*
X127594400Y-94175260D01*
X127595110Y-94160802D01*
X127597234Y-94146484D01*
X127600751Y-94132443D01*
X127605628Y-94118814D01*
X127611817Y-94105729D01*
X127619258Y-94093313D01*
X127627881Y-94081687D01*
X127637602Y-94070962D01*
X127648327Y-94061241D01*
X127659953Y-94052618D01*
X127672369Y-94045177D01*
X127685454Y-94038988D01*
X127699083Y-94034111D01*
X127713124Y-94030594D01*
X127727442Y-94028470D01*
X127741900Y-94027760D01*
X128086900Y-94027760D01*
X128101358Y-94028470D01*
G37*
G36*
X131568718Y-91273110D02*
G01*
X131583036Y-91275234D01*
X131597077Y-91278751D01*
X131610706Y-91283628D01*
X131623791Y-91289817D01*
X131636207Y-91297258D01*
X131647833Y-91305881D01*
X131658558Y-91315602D01*
X131668279Y-91326327D01*
X131676902Y-91337953D01*
X131684343Y-91350369D01*
X131690532Y-91363454D01*
X131695409Y-91377083D01*
X131698926Y-91391124D01*
X131701050Y-91405442D01*
X131701760Y-91419900D01*
X131701760Y-91764900D01*
X131701050Y-91779358D01*
X131698926Y-91793676D01*
X131695409Y-91807717D01*
X131690532Y-91821346D01*
X131684343Y-91834431D01*
X131676902Y-91846847D01*
X131668279Y-91858473D01*
X131658558Y-91869198D01*
X131647833Y-91878919D01*
X131636207Y-91887542D01*
X131623791Y-91894983D01*
X131610706Y-91901172D01*
X131597077Y-91906049D01*
X131583036Y-91909566D01*
X131568718Y-91911690D01*
X131554260Y-91912400D01*
X131259260Y-91912400D01*
X131244802Y-91911690D01*
X131230484Y-91909566D01*
X131216443Y-91906049D01*
X131202814Y-91901172D01*
X131189729Y-91894983D01*
X131177313Y-91887542D01*
X131165687Y-91878919D01*
X131154962Y-91869198D01*
X131145241Y-91858473D01*
X131136618Y-91846847D01*
X131129177Y-91834431D01*
X131122988Y-91821346D01*
X131118111Y-91807717D01*
X131114594Y-91793676D01*
X131112470Y-91779358D01*
X131111760Y-91764900D01*
X131111760Y-91419900D01*
X131112470Y-91405442D01*
X131114594Y-91391124D01*
X131118111Y-91377083D01*
X131122988Y-91363454D01*
X131129177Y-91350369D01*
X131136618Y-91337953D01*
X131145241Y-91326327D01*
X131154962Y-91315602D01*
X131165687Y-91305881D01*
X131177313Y-91297258D01*
X131189729Y-91289817D01*
X131202814Y-91283628D01*
X131216443Y-91278751D01*
X131230484Y-91275234D01*
X131244802Y-91273110D01*
X131259260Y-91272400D01*
X131554260Y-91272400D01*
X131568718Y-91273110D01*
G37*
G36*
X130598718Y-91273110D02*
G01*
X130613036Y-91275234D01*
X130627077Y-91278751D01*
X130640706Y-91283628D01*
X130653791Y-91289817D01*
X130666207Y-91297258D01*
X130677833Y-91305881D01*
X130688558Y-91315602D01*
X130698279Y-91326327D01*
X130706902Y-91337953D01*
X130714343Y-91350369D01*
X130720532Y-91363454D01*
X130725409Y-91377083D01*
X130728926Y-91391124D01*
X130731050Y-91405442D01*
X130731760Y-91419900D01*
X130731760Y-91764900D01*
X130731050Y-91779358D01*
X130728926Y-91793676D01*
X130725409Y-91807717D01*
X130720532Y-91821346D01*
X130714343Y-91834431D01*
X130706902Y-91846847D01*
X130698279Y-91858473D01*
X130688558Y-91869198D01*
X130677833Y-91878919D01*
X130666207Y-91887542D01*
X130653791Y-91894983D01*
X130640706Y-91901172D01*
X130627077Y-91906049D01*
X130613036Y-91909566D01*
X130598718Y-91911690D01*
X130584260Y-91912400D01*
X130289260Y-91912400D01*
X130274802Y-91911690D01*
X130260484Y-91909566D01*
X130246443Y-91906049D01*
X130232814Y-91901172D01*
X130219729Y-91894983D01*
X130207313Y-91887542D01*
X130195687Y-91878919D01*
X130184962Y-91869198D01*
X130175241Y-91858473D01*
X130166618Y-91846847D01*
X130159177Y-91834431D01*
X130152988Y-91821346D01*
X130148111Y-91807717D01*
X130144594Y-91793676D01*
X130142470Y-91779358D01*
X130141760Y-91764900D01*
X130141760Y-91419900D01*
X130142470Y-91405442D01*
X130144594Y-91391124D01*
X130148111Y-91377083D01*
X130152988Y-91363454D01*
X130159177Y-91350369D01*
X130166618Y-91337953D01*
X130175241Y-91326327D01*
X130184962Y-91315602D01*
X130195687Y-91305881D01*
X130207313Y-91297258D01*
X130219729Y-91289817D01*
X130232814Y-91283628D01*
X130246443Y-91278751D01*
X130260484Y-91275234D01*
X130274802Y-91273110D01*
X130289260Y-91272400D01*
X130584260Y-91272400D01*
X130598718Y-91273110D01*
G37*
G36*
X134845998Y-86182110D02*
G01*
X134860316Y-86184234D01*
X134874357Y-86187751D01*
X134887986Y-86192628D01*
X134901071Y-86198817D01*
X134913487Y-86206258D01*
X134925113Y-86214881D01*
X134935838Y-86224602D01*
X134945559Y-86235327D01*
X134954182Y-86246953D01*
X134961623Y-86259369D01*
X134967812Y-86272454D01*
X134972689Y-86286083D01*
X134976206Y-86300124D01*
X134978330Y-86314442D01*
X134979040Y-86328900D01*
X134979040Y-86623900D01*
X134978330Y-86638358D01*
X134976206Y-86652676D01*
X134972689Y-86666717D01*
X134967812Y-86680346D01*
X134961623Y-86693431D01*
X134954182Y-86705847D01*
X134945559Y-86717473D01*
X134935838Y-86728198D01*
X134925113Y-86737919D01*
X134913487Y-86746542D01*
X134901071Y-86753983D01*
X134887986Y-86760172D01*
X134874357Y-86765049D01*
X134860316Y-86768566D01*
X134845998Y-86770690D01*
X134831540Y-86771400D01*
X134486540Y-86771400D01*
X134472082Y-86770690D01*
X134457764Y-86768566D01*
X134443723Y-86765049D01*
X134430094Y-86760172D01*
X134417009Y-86753983D01*
X134404593Y-86746542D01*
X134392967Y-86737919D01*
X134382242Y-86728198D01*
X134372521Y-86717473D01*
X134363898Y-86705847D01*
X134356457Y-86693431D01*
X134350268Y-86680346D01*
X134345391Y-86666717D01*
X134341874Y-86652676D01*
X134339750Y-86638358D01*
X134339040Y-86623900D01*
X134339040Y-86328900D01*
X134339750Y-86314442D01*
X134341874Y-86300124D01*
X134345391Y-86286083D01*
X134350268Y-86272454D01*
X134356457Y-86259369D01*
X134363898Y-86246953D01*
X134372521Y-86235327D01*
X134382242Y-86224602D01*
X134392967Y-86214881D01*
X134404593Y-86206258D01*
X134417009Y-86198817D01*
X134430094Y-86192628D01*
X134443723Y-86187751D01*
X134457764Y-86184234D01*
X134472082Y-86182110D01*
X134486540Y-86181400D01*
X134831540Y-86181400D01*
X134845998Y-86182110D01*
G37*
G36*
X134845998Y-87152110D02*
G01*
X134860316Y-87154234D01*
X134874357Y-87157751D01*
X134887986Y-87162628D01*
X134901071Y-87168817D01*
X134913487Y-87176258D01*
X134925113Y-87184881D01*
X134935838Y-87194602D01*
X134945559Y-87205327D01*
X134954182Y-87216953D01*
X134961623Y-87229369D01*
X134967812Y-87242454D01*
X134972689Y-87256083D01*
X134976206Y-87270124D01*
X134978330Y-87284442D01*
X134979040Y-87298900D01*
X134979040Y-87593900D01*
X134978330Y-87608358D01*
X134976206Y-87622676D01*
X134972689Y-87636717D01*
X134967812Y-87650346D01*
X134961623Y-87663431D01*
X134954182Y-87675847D01*
X134945559Y-87687473D01*
X134935838Y-87698198D01*
X134925113Y-87707919D01*
X134913487Y-87716542D01*
X134901071Y-87723983D01*
X134887986Y-87730172D01*
X134874357Y-87735049D01*
X134860316Y-87738566D01*
X134845998Y-87740690D01*
X134831540Y-87741400D01*
X134486540Y-87741400D01*
X134472082Y-87740690D01*
X134457764Y-87738566D01*
X134443723Y-87735049D01*
X134430094Y-87730172D01*
X134417009Y-87723983D01*
X134404593Y-87716542D01*
X134392967Y-87707919D01*
X134382242Y-87698198D01*
X134372521Y-87687473D01*
X134363898Y-87675847D01*
X134356457Y-87663431D01*
X134350268Y-87650346D01*
X134345391Y-87636717D01*
X134341874Y-87622676D01*
X134339750Y-87608358D01*
X134339040Y-87593900D01*
X134339040Y-87298900D01*
X134339750Y-87284442D01*
X134341874Y-87270124D01*
X134345391Y-87256083D01*
X134350268Y-87242454D01*
X134356457Y-87229369D01*
X134363898Y-87216953D01*
X134372521Y-87205327D01*
X134382242Y-87194602D01*
X134392967Y-87184881D01*
X134404593Y-87176258D01*
X134417009Y-87168817D01*
X134430094Y-87162628D01*
X134443723Y-87157751D01*
X134457764Y-87154234D01*
X134472082Y-87152110D01*
X134486540Y-87151400D01*
X134831540Y-87151400D01*
X134845998Y-87152110D01*
G37*
G36*
X130588558Y-92416110D02*
G01*
X130602876Y-92418234D01*
X130616917Y-92421751D01*
X130630546Y-92426628D01*
X130643631Y-92432817D01*
X130656047Y-92440258D01*
X130667673Y-92448881D01*
X130678398Y-92458602D01*
X130688119Y-92469327D01*
X130696742Y-92480953D01*
X130704183Y-92493369D01*
X130710372Y-92506454D01*
X130715249Y-92520083D01*
X130718766Y-92534124D01*
X130720890Y-92548442D01*
X130721600Y-92562900D01*
X130721600Y-92907900D01*
X130720890Y-92922358D01*
X130718766Y-92936676D01*
X130715249Y-92950717D01*
X130710372Y-92964346D01*
X130704183Y-92977431D01*
X130696742Y-92989847D01*
X130688119Y-93001473D01*
X130678398Y-93012198D01*
X130667673Y-93021919D01*
X130656047Y-93030542D01*
X130643631Y-93037983D01*
X130630546Y-93044172D01*
X130616917Y-93049049D01*
X130602876Y-93052566D01*
X130588558Y-93054690D01*
X130574100Y-93055400D01*
X130279100Y-93055400D01*
X130264642Y-93054690D01*
X130250324Y-93052566D01*
X130236283Y-93049049D01*
X130222654Y-93044172D01*
X130209569Y-93037983D01*
X130197153Y-93030542D01*
X130185527Y-93021919D01*
X130174802Y-93012198D01*
X130165081Y-93001473D01*
X130156458Y-92989847D01*
X130149017Y-92977431D01*
X130142828Y-92964346D01*
X130137951Y-92950717D01*
X130134434Y-92936676D01*
X130132310Y-92922358D01*
X130131600Y-92907900D01*
X130131600Y-92562900D01*
X130132310Y-92548442D01*
X130134434Y-92534124D01*
X130137951Y-92520083D01*
X130142828Y-92506454D01*
X130149017Y-92493369D01*
X130156458Y-92480953D01*
X130165081Y-92469327D01*
X130174802Y-92458602D01*
X130185527Y-92448881D01*
X130197153Y-92440258D01*
X130209569Y-92432817D01*
X130222654Y-92426628D01*
X130236283Y-92421751D01*
X130250324Y-92418234D01*
X130264642Y-92416110D01*
X130279100Y-92415400D01*
X130574100Y-92415400D01*
X130588558Y-92416110D01*
G37*
G36*
X131558558Y-92416110D02*
G01*
X131572876Y-92418234D01*
X131586917Y-92421751D01*
X131600546Y-92426628D01*
X131613631Y-92432817D01*
X131626047Y-92440258D01*
X131637673Y-92448881D01*
X131648398Y-92458602D01*
X131658119Y-92469327D01*
X131666742Y-92480953D01*
X131674183Y-92493369D01*
X131680372Y-92506454D01*
X131685249Y-92520083D01*
X131688766Y-92534124D01*
X131690890Y-92548442D01*
X131691600Y-92562900D01*
X131691600Y-92907900D01*
X131690890Y-92922358D01*
X131688766Y-92936676D01*
X131685249Y-92950717D01*
X131680372Y-92964346D01*
X131674183Y-92977431D01*
X131666742Y-92989847D01*
X131658119Y-93001473D01*
X131648398Y-93012198D01*
X131637673Y-93021919D01*
X131626047Y-93030542D01*
X131613631Y-93037983D01*
X131600546Y-93044172D01*
X131586917Y-93049049D01*
X131572876Y-93052566D01*
X131558558Y-93054690D01*
X131544100Y-93055400D01*
X131249100Y-93055400D01*
X131234642Y-93054690D01*
X131220324Y-93052566D01*
X131206283Y-93049049D01*
X131192654Y-93044172D01*
X131179569Y-93037983D01*
X131167153Y-93030542D01*
X131155527Y-93021919D01*
X131144802Y-93012198D01*
X131135081Y-93001473D01*
X131126458Y-92989847D01*
X131119017Y-92977431D01*
X131112828Y-92964346D01*
X131107951Y-92950717D01*
X131104434Y-92936676D01*
X131102310Y-92922358D01*
X131101600Y-92907900D01*
X131101600Y-92562900D01*
X131102310Y-92548442D01*
X131104434Y-92534124D01*
X131107951Y-92520083D01*
X131112828Y-92506454D01*
X131119017Y-92493369D01*
X131126458Y-92480953D01*
X131135081Y-92469327D01*
X131144802Y-92458602D01*
X131155527Y-92448881D01*
X131167153Y-92440258D01*
X131179569Y-92432817D01*
X131192654Y-92426628D01*
X131206283Y-92421751D01*
X131220324Y-92418234D01*
X131234642Y-92416110D01*
X131249100Y-92415400D01*
X131544100Y-92415400D01*
X131558558Y-92416110D01*
G37*
G36*
X130171998Y-99075990D02*
G01*
X130186316Y-99078114D01*
X130200357Y-99081631D01*
X130213986Y-99086508D01*
X130227071Y-99092697D01*
X130239487Y-99100138D01*
X130251113Y-99108761D01*
X130261838Y-99118482D01*
X130271559Y-99129207D01*
X130280182Y-99140833D01*
X130287623Y-99153249D01*
X130293812Y-99166334D01*
X130298689Y-99179963D01*
X130302206Y-99194004D01*
X130304330Y-99208322D01*
X130305040Y-99222780D01*
X130305040Y-99567780D01*
X130304330Y-99582238D01*
X130302206Y-99596556D01*
X130298689Y-99610597D01*
X130293812Y-99624226D01*
X130287623Y-99637311D01*
X130280182Y-99649727D01*
X130271559Y-99661353D01*
X130261838Y-99672078D01*
X130251113Y-99681799D01*
X130239487Y-99690422D01*
X130227071Y-99697863D01*
X130213986Y-99704052D01*
X130200357Y-99708929D01*
X130186316Y-99712446D01*
X130171998Y-99714570D01*
X130157540Y-99715280D01*
X129862540Y-99715280D01*
X129848082Y-99714570D01*
X129833764Y-99712446D01*
X129819723Y-99708929D01*
X129806094Y-99704052D01*
X129793009Y-99697863D01*
X129780593Y-99690422D01*
X129768967Y-99681799D01*
X129758242Y-99672078D01*
X129748521Y-99661353D01*
X129739898Y-99649727D01*
X129732457Y-99637311D01*
X129726268Y-99624226D01*
X129721391Y-99610597D01*
X129717874Y-99596556D01*
X129715750Y-99582238D01*
X129715040Y-99567780D01*
X129715040Y-99222780D01*
X129715750Y-99208322D01*
X129717874Y-99194004D01*
X129721391Y-99179963D01*
X129726268Y-99166334D01*
X129732457Y-99153249D01*
X129739898Y-99140833D01*
X129748521Y-99129207D01*
X129758242Y-99118482D01*
X129768967Y-99108761D01*
X129780593Y-99100138D01*
X129793009Y-99092697D01*
X129806094Y-99086508D01*
X129819723Y-99081631D01*
X129833764Y-99078114D01*
X129848082Y-99075990D01*
X129862540Y-99075280D01*
X130157540Y-99075280D01*
X130171998Y-99075990D01*
G37*
G36*
X131141998Y-99075990D02*
G01*
X131156316Y-99078114D01*
X131170357Y-99081631D01*
X131183986Y-99086508D01*
X131197071Y-99092697D01*
X131209487Y-99100138D01*
X131221113Y-99108761D01*
X131231838Y-99118482D01*
X131241559Y-99129207D01*
X131250182Y-99140833D01*
X131257623Y-99153249D01*
X131263812Y-99166334D01*
X131268689Y-99179963D01*
X131272206Y-99194004D01*
X131274330Y-99208322D01*
X131275040Y-99222780D01*
X131275040Y-99567780D01*
X131274330Y-99582238D01*
X131272206Y-99596556D01*
X131268689Y-99610597D01*
X131263812Y-99624226D01*
X131257623Y-99637311D01*
X131250182Y-99649727D01*
X131241559Y-99661353D01*
X131231838Y-99672078D01*
X131221113Y-99681799D01*
X131209487Y-99690422D01*
X131197071Y-99697863D01*
X131183986Y-99704052D01*
X131170357Y-99708929D01*
X131156316Y-99712446D01*
X131141998Y-99714570D01*
X131127540Y-99715280D01*
X130832540Y-99715280D01*
X130818082Y-99714570D01*
X130803764Y-99712446D01*
X130789723Y-99708929D01*
X130776094Y-99704052D01*
X130763009Y-99697863D01*
X130750593Y-99690422D01*
X130738967Y-99681799D01*
X130728242Y-99672078D01*
X130718521Y-99661353D01*
X130709898Y-99649727D01*
X130702457Y-99637311D01*
X130696268Y-99624226D01*
X130691391Y-99610597D01*
X130687874Y-99596556D01*
X130685750Y-99582238D01*
X130685040Y-99567780D01*
X130685040Y-99222780D01*
X130685750Y-99208322D01*
X130687874Y-99194004D01*
X130691391Y-99179963D01*
X130696268Y-99166334D01*
X130702457Y-99153249D01*
X130709898Y-99140833D01*
X130718521Y-99129207D01*
X130728242Y-99118482D01*
X130738967Y-99108761D01*
X130750593Y-99100138D01*
X130763009Y-99092697D01*
X130776094Y-99086508D01*
X130789723Y-99081631D01*
X130803764Y-99078114D01*
X130818082Y-99075990D01*
X130832540Y-99075280D01*
X131127540Y-99075280D01*
X131141998Y-99075990D01*
G37*
G36*
X138787678Y-119944630D02*
G01*
X138801996Y-119946754D01*
X138816037Y-119950271D01*
X138829666Y-119955148D01*
X138842751Y-119961337D01*
X138855167Y-119968778D01*
X138866793Y-119977401D01*
X138877518Y-119987122D01*
X138887239Y-119997847D01*
X138895862Y-120009473D01*
X138903303Y-120021889D01*
X138909492Y-120034974D01*
X138914369Y-120048603D01*
X138917886Y-120062644D01*
X138920010Y-120076962D01*
X138920720Y-120091420D01*
X138920720Y-120436420D01*
X138920010Y-120450878D01*
X138917886Y-120465196D01*
X138914369Y-120479237D01*
X138909492Y-120492866D01*
X138903303Y-120505951D01*
X138895862Y-120518367D01*
X138887239Y-120529993D01*
X138877518Y-120540718D01*
X138866793Y-120550439D01*
X138855167Y-120559062D01*
X138842751Y-120566503D01*
X138829666Y-120572692D01*
X138816037Y-120577569D01*
X138801996Y-120581086D01*
X138787678Y-120583210D01*
X138773220Y-120583920D01*
X138478220Y-120583920D01*
X138463762Y-120583210D01*
X138449444Y-120581086D01*
X138435403Y-120577569D01*
X138421774Y-120572692D01*
X138408689Y-120566503D01*
X138396273Y-120559062D01*
X138384647Y-120550439D01*
X138373922Y-120540718D01*
X138364201Y-120529993D01*
X138355578Y-120518367D01*
X138348137Y-120505951D01*
X138341948Y-120492866D01*
X138337071Y-120479237D01*
X138333554Y-120465196D01*
X138331430Y-120450878D01*
X138330720Y-120436420D01*
X138330720Y-120091420D01*
X138331430Y-120076962D01*
X138333554Y-120062644D01*
X138337071Y-120048603D01*
X138341948Y-120034974D01*
X138348137Y-120021889D01*
X138355578Y-120009473D01*
X138364201Y-119997847D01*
X138373922Y-119987122D01*
X138384647Y-119977401D01*
X138396273Y-119968778D01*
X138408689Y-119961337D01*
X138421774Y-119955148D01*
X138435403Y-119950271D01*
X138449444Y-119946754D01*
X138463762Y-119944630D01*
X138478220Y-119943920D01*
X138773220Y-119943920D01*
X138787678Y-119944630D01*
G37*
G36*
X139757678Y-119944630D02*
G01*
X139771996Y-119946754D01*
X139786037Y-119950271D01*
X139799666Y-119955148D01*
X139812751Y-119961337D01*
X139825167Y-119968778D01*
X139836793Y-119977401D01*
X139847518Y-119987122D01*
X139857239Y-119997847D01*
X139865862Y-120009473D01*
X139873303Y-120021889D01*
X139879492Y-120034974D01*
X139884369Y-120048603D01*
X139887886Y-120062644D01*
X139890010Y-120076962D01*
X139890720Y-120091420D01*
X139890720Y-120436420D01*
X139890010Y-120450878D01*
X139887886Y-120465196D01*
X139884369Y-120479237D01*
X139879492Y-120492866D01*
X139873303Y-120505951D01*
X139865862Y-120518367D01*
X139857239Y-120529993D01*
X139847518Y-120540718D01*
X139836793Y-120550439D01*
X139825167Y-120559062D01*
X139812751Y-120566503D01*
X139799666Y-120572692D01*
X139786037Y-120577569D01*
X139771996Y-120581086D01*
X139757678Y-120583210D01*
X139743220Y-120583920D01*
X139448220Y-120583920D01*
X139433762Y-120583210D01*
X139419444Y-120581086D01*
X139405403Y-120577569D01*
X139391774Y-120572692D01*
X139378689Y-120566503D01*
X139366273Y-120559062D01*
X139354647Y-120550439D01*
X139343922Y-120540718D01*
X139334201Y-120529993D01*
X139325578Y-120518367D01*
X139318137Y-120505951D01*
X139311948Y-120492866D01*
X139307071Y-120479237D01*
X139303554Y-120465196D01*
X139301430Y-120450878D01*
X139300720Y-120436420D01*
X139300720Y-120091420D01*
X139301430Y-120076962D01*
X139303554Y-120062644D01*
X139307071Y-120048603D01*
X139311948Y-120034974D01*
X139318137Y-120021889D01*
X139325578Y-120009473D01*
X139334201Y-119997847D01*
X139343922Y-119987122D01*
X139354647Y-119977401D01*
X139366273Y-119968778D01*
X139378689Y-119961337D01*
X139391774Y-119955148D01*
X139405403Y-119950271D01*
X139419444Y-119946754D01*
X139433762Y-119944630D01*
X139448220Y-119943920D01*
X139743220Y-119943920D01*
X139757678Y-119944630D01*
G37*
G36*
X134510318Y-92223070D02*
G01*
X134524636Y-92225194D01*
X134538677Y-92228711D01*
X134552306Y-92233588D01*
X134565391Y-92239777D01*
X134577807Y-92247218D01*
X134589433Y-92255841D01*
X134600158Y-92265562D01*
X134609879Y-92276287D01*
X134618502Y-92287913D01*
X134625943Y-92300329D01*
X134632132Y-92313414D01*
X134637009Y-92327043D01*
X134640526Y-92341084D01*
X134642650Y-92355402D01*
X134643360Y-92369860D01*
X134643360Y-92714860D01*
X134642650Y-92729318D01*
X134640526Y-92743636D01*
X134637009Y-92757677D01*
X134632132Y-92771306D01*
X134625943Y-92784391D01*
X134618502Y-92796807D01*
X134609879Y-92808433D01*
X134600158Y-92819158D01*
X134589433Y-92828879D01*
X134577807Y-92837502D01*
X134565391Y-92844943D01*
X134552306Y-92851132D01*
X134538677Y-92856009D01*
X134524636Y-92859526D01*
X134510318Y-92861650D01*
X134495860Y-92862360D01*
X134200860Y-92862360D01*
X134186402Y-92861650D01*
X134172084Y-92859526D01*
X134158043Y-92856009D01*
X134144414Y-92851132D01*
X134131329Y-92844943D01*
X134118913Y-92837502D01*
X134107287Y-92828879D01*
X134096562Y-92819158D01*
X134086841Y-92808433D01*
X134078218Y-92796807D01*
X134070777Y-92784391D01*
X134064588Y-92771306D01*
X134059711Y-92757677D01*
X134056194Y-92743636D01*
X134054070Y-92729318D01*
X134053360Y-92714860D01*
X134053360Y-92369860D01*
X134054070Y-92355402D01*
X134056194Y-92341084D01*
X134059711Y-92327043D01*
X134064588Y-92313414D01*
X134070777Y-92300329D01*
X134078218Y-92287913D01*
X134086841Y-92276287D01*
X134096562Y-92265562D01*
X134107287Y-92255841D01*
X134118913Y-92247218D01*
X134131329Y-92239777D01*
X134144414Y-92233588D01*
X134158043Y-92228711D01*
X134172084Y-92225194D01*
X134186402Y-92223070D01*
X134200860Y-92222360D01*
X134495860Y-92222360D01*
X134510318Y-92223070D01*
G37*
G36*
X135480318Y-92223070D02*
G01*
X135494636Y-92225194D01*
X135508677Y-92228711D01*
X135522306Y-92233588D01*
X135535391Y-92239777D01*
X135547807Y-92247218D01*
X135559433Y-92255841D01*
X135570158Y-92265562D01*
X135579879Y-92276287D01*
X135588502Y-92287913D01*
X135595943Y-92300329D01*
X135602132Y-92313414D01*
X135607009Y-92327043D01*
X135610526Y-92341084D01*
X135612650Y-92355402D01*
X135613360Y-92369860D01*
X135613360Y-92714860D01*
X135612650Y-92729318D01*
X135610526Y-92743636D01*
X135607009Y-92757677D01*
X135602132Y-92771306D01*
X135595943Y-92784391D01*
X135588502Y-92796807D01*
X135579879Y-92808433D01*
X135570158Y-92819158D01*
X135559433Y-92828879D01*
X135547807Y-92837502D01*
X135535391Y-92844943D01*
X135522306Y-92851132D01*
X135508677Y-92856009D01*
X135494636Y-92859526D01*
X135480318Y-92861650D01*
X135465860Y-92862360D01*
X135170860Y-92862360D01*
X135156402Y-92861650D01*
X135142084Y-92859526D01*
X135128043Y-92856009D01*
X135114414Y-92851132D01*
X135101329Y-92844943D01*
X135088913Y-92837502D01*
X135077287Y-92828879D01*
X135066562Y-92819158D01*
X135056841Y-92808433D01*
X135048218Y-92796807D01*
X135040777Y-92784391D01*
X135034588Y-92771306D01*
X135029711Y-92757677D01*
X135026194Y-92743636D01*
X135024070Y-92729318D01*
X135023360Y-92714860D01*
X135023360Y-92369860D01*
X135024070Y-92355402D01*
X135026194Y-92341084D01*
X135029711Y-92327043D01*
X135034588Y-92313414D01*
X135040777Y-92300329D01*
X135048218Y-92287913D01*
X135056841Y-92276287D01*
X135066562Y-92265562D01*
X135077287Y-92255841D01*
X135088913Y-92247218D01*
X135101329Y-92239777D01*
X135114414Y-92233588D01*
X135128043Y-92228711D01*
X135142084Y-92225194D01*
X135156402Y-92223070D01*
X135170860Y-92222360D01*
X135465860Y-92222360D01*
X135480318Y-92223070D01*
G37*
G36*
X136432558Y-93932230D02*
G01*
X136446876Y-93934354D01*
X136460917Y-93937871D01*
X136474546Y-93942748D01*
X136487631Y-93948937D01*
X136500047Y-93956378D01*
X136511673Y-93965001D01*
X136522398Y-93974722D01*
X136532119Y-93985447D01*
X136540742Y-93997073D01*
X136548183Y-94009489D01*
X136554372Y-94022574D01*
X136559249Y-94036203D01*
X136562766Y-94050244D01*
X136564890Y-94064562D01*
X136565600Y-94079020D01*
X136565600Y-94374020D01*
X136564890Y-94388478D01*
X136562766Y-94402796D01*
X136559249Y-94416837D01*
X136554372Y-94430466D01*
X136548183Y-94443551D01*
X136540742Y-94455967D01*
X136532119Y-94467593D01*
X136522398Y-94478318D01*
X136511673Y-94488039D01*
X136500047Y-94496662D01*
X136487631Y-94504103D01*
X136474546Y-94510292D01*
X136460917Y-94515169D01*
X136446876Y-94518686D01*
X136432558Y-94520810D01*
X136418100Y-94521520D01*
X136073100Y-94521520D01*
X136058642Y-94520810D01*
X136044324Y-94518686D01*
X136030283Y-94515169D01*
X136016654Y-94510292D01*
X136003569Y-94504103D01*
X135991153Y-94496662D01*
X135979527Y-94488039D01*
X135968802Y-94478318D01*
X135959081Y-94467593D01*
X135950458Y-94455967D01*
X135943017Y-94443551D01*
X135936828Y-94430466D01*
X135931951Y-94416837D01*
X135928434Y-94402796D01*
X135926310Y-94388478D01*
X135925600Y-94374020D01*
X135925600Y-94079020D01*
X135926310Y-94064562D01*
X135928434Y-94050244D01*
X135931951Y-94036203D01*
X135936828Y-94022574D01*
X135943017Y-94009489D01*
X135950458Y-93997073D01*
X135959081Y-93985447D01*
X135968802Y-93974722D01*
X135979527Y-93965001D01*
X135991153Y-93956378D01*
X136003569Y-93948937D01*
X136016654Y-93942748D01*
X136030283Y-93937871D01*
X136044324Y-93934354D01*
X136058642Y-93932230D01*
X136073100Y-93931520D01*
X136418100Y-93931520D01*
X136432558Y-93932230D01*
G37*
G36*
X136432558Y-94902230D02*
G01*
X136446876Y-94904354D01*
X136460917Y-94907871D01*
X136474546Y-94912748D01*
X136487631Y-94918937D01*
X136500047Y-94926378D01*
X136511673Y-94935001D01*
X136522398Y-94944722D01*
X136532119Y-94955447D01*
X136540742Y-94967073D01*
X136548183Y-94979489D01*
X136554372Y-94992574D01*
X136559249Y-95006203D01*
X136562766Y-95020244D01*
X136564890Y-95034562D01*
X136565600Y-95049020D01*
X136565600Y-95344020D01*
X136564890Y-95358478D01*
X136562766Y-95372796D01*
X136559249Y-95386837D01*
X136554372Y-95400466D01*
X136548183Y-95413551D01*
X136540742Y-95425967D01*
X136532119Y-95437593D01*
X136522398Y-95448318D01*
X136511673Y-95458039D01*
X136500047Y-95466662D01*
X136487631Y-95474103D01*
X136474546Y-95480292D01*
X136460917Y-95485169D01*
X136446876Y-95488686D01*
X136432558Y-95490810D01*
X136418100Y-95491520D01*
X136073100Y-95491520D01*
X136058642Y-95490810D01*
X136044324Y-95488686D01*
X136030283Y-95485169D01*
X136016654Y-95480292D01*
X136003569Y-95474103D01*
X135991153Y-95466662D01*
X135979527Y-95458039D01*
X135968802Y-95448318D01*
X135959081Y-95437593D01*
X135950458Y-95425967D01*
X135943017Y-95413551D01*
X135936828Y-95400466D01*
X135931951Y-95386837D01*
X135928434Y-95372796D01*
X135926310Y-95358478D01*
X135925600Y-95344020D01*
X135925600Y-95049020D01*
X135926310Y-95034562D01*
X135928434Y-95020244D01*
X135931951Y-95006203D01*
X135936828Y-94992574D01*
X135943017Y-94979489D01*
X135950458Y-94967073D01*
X135959081Y-94955447D01*
X135968802Y-94944722D01*
X135979527Y-94935001D01*
X135991153Y-94926378D01*
X136003569Y-94918937D01*
X136016654Y-94912748D01*
X136030283Y-94907871D01*
X136044324Y-94904354D01*
X136058642Y-94902230D01*
X136073100Y-94901520D01*
X136418100Y-94901520D01*
X136432558Y-94902230D01*
G37*
G36*
X128096278Y-95240190D02*
G01*
X128110596Y-95242314D01*
X128124637Y-95245831D01*
X128138266Y-95250708D01*
X128151351Y-95256897D01*
X128163767Y-95264338D01*
X128175393Y-95272961D01*
X128186118Y-95282682D01*
X128195839Y-95293407D01*
X128204462Y-95305033D01*
X128211903Y-95317449D01*
X128218092Y-95330534D01*
X128222969Y-95344163D01*
X128226486Y-95358204D01*
X128228610Y-95372522D01*
X128229320Y-95386980D01*
X128229320Y-95681980D01*
X128228610Y-95696438D01*
X128226486Y-95710756D01*
X128222969Y-95724797D01*
X128218092Y-95738426D01*
X128211903Y-95751511D01*
X128204462Y-95763927D01*
X128195839Y-95775553D01*
X128186118Y-95786278D01*
X128175393Y-95795999D01*
X128163767Y-95804622D01*
X128151351Y-95812063D01*
X128138266Y-95818252D01*
X128124637Y-95823129D01*
X128110596Y-95826646D01*
X128096278Y-95828770D01*
X128081820Y-95829480D01*
X127736820Y-95829480D01*
X127722362Y-95828770D01*
X127708044Y-95826646D01*
X127694003Y-95823129D01*
X127680374Y-95818252D01*
X127667289Y-95812063D01*
X127654873Y-95804622D01*
X127643247Y-95795999D01*
X127632522Y-95786278D01*
X127622801Y-95775553D01*
X127614178Y-95763927D01*
X127606737Y-95751511D01*
X127600548Y-95738426D01*
X127595671Y-95724797D01*
X127592154Y-95710756D01*
X127590030Y-95696438D01*
X127589320Y-95681980D01*
X127589320Y-95386980D01*
X127590030Y-95372522D01*
X127592154Y-95358204D01*
X127595671Y-95344163D01*
X127600548Y-95330534D01*
X127606737Y-95317449D01*
X127614178Y-95305033D01*
X127622801Y-95293407D01*
X127632522Y-95282682D01*
X127643247Y-95272961D01*
X127654873Y-95264338D01*
X127667289Y-95256897D01*
X127680374Y-95250708D01*
X127694003Y-95245831D01*
X127708044Y-95242314D01*
X127722362Y-95240190D01*
X127736820Y-95239480D01*
X128081820Y-95239480D01*
X128096278Y-95240190D01*
G37*
G36*
X128096278Y-96210190D02*
G01*
X128110596Y-96212314D01*
X128124637Y-96215831D01*
X128138266Y-96220708D01*
X128151351Y-96226897D01*
X128163767Y-96234338D01*
X128175393Y-96242961D01*
X128186118Y-96252682D01*
X128195839Y-96263407D01*
X128204462Y-96275033D01*
X128211903Y-96287449D01*
X128218092Y-96300534D01*
X128222969Y-96314163D01*
X128226486Y-96328204D01*
X128228610Y-96342522D01*
X128229320Y-96356980D01*
X128229320Y-96651980D01*
X128228610Y-96666438D01*
X128226486Y-96680756D01*
X128222969Y-96694797D01*
X128218092Y-96708426D01*
X128211903Y-96721511D01*
X128204462Y-96733927D01*
X128195839Y-96745553D01*
X128186118Y-96756278D01*
X128175393Y-96765999D01*
X128163767Y-96774622D01*
X128151351Y-96782063D01*
X128138266Y-96788252D01*
X128124637Y-96793129D01*
X128110596Y-96796646D01*
X128096278Y-96798770D01*
X128081820Y-96799480D01*
X127736820Y-96799480D01*
X127722362Y-96798770D01*
X127708044Y-96796646D01*
X127694003Y-96793129D01*
X127680374Y-96788252D01*
X127667289Y-96782063D01*
X127654873Y-96774622D01*
X127643247Y-96765999D01*
X127632522Y-96756278D01*
X127622801Y-96745553D01*
X127614178Y-96733927D01*
X127606737Y-96721511D01*
X127600548Y-96708426D01*
X127595671Y-96694797D01*
X127592154Y-96680756D01*
X127590030Y-96666438D01*
X127589320Y-96651980D01*
X127589320Y-96356980D01*
X127590030Y-96342522D01*
X127592154Y-96328204D01*
X127595671Y-96314163D01*
X127600548Y-96300534D01*
X127606737Y-96287449D01*
X127614178Y-96275033D01*
X127622801Y-96263407D01*
X127632522Y-96252682D01*
X127643247Y-96242961D01*
X127654873Y-96234338D01*
X127667289Y-96226897D01*
X127680374Y-96220708D01*
X127694003Y-96215831D01*
X127708044Y-96212314D01*
X127722362Y-96210190D01*
X127736820Y-96209480D01*
X128081820Y-96209480D01*
X128096278Y-96210190D01*
G37*
D13*
X133503000Y-121036080D03*
X136753000Y-121036080D03*
X130128680Y-121020840D03*
X126878680Y-121020840D03*
D14*
X127475000Y-80100000D03*
X127475000Y-79100000D03*
X127475000Y-78100000D03*
X127475000Y-77100000D03*
X127475000Y-76100000D03*
X127475000Y-75100000D03*
X127475000Y-74100000D03*
X127475000Y-73100000D03*
X127475000Y-72100000D03*
X127475000Y-71100000D03*
X135725000Y-80100000D03*
X135725000Y-79100000D03*
X135725000Y-78100000D03*
X135725000Y-77100000D03*
X135725000Y-76100000D03*
X135725000Y-75100000D03*
X135725000Y-74100000D03*
X135725000Y-73100000D03*
X135725000Y-72100000D03*
X135725000Y-71100000D03*
D15*
X131600000Y-80025000D03*
X130600000Y-80025000D03*
X129600000Y-80025000D03*
X132600000Y-80025000D03*
X133600000Y-80025000D03*
X129600000Y-71175000D03*
X130600000Y-71175000D03*
X131600000Y-71175000D03*
X132600000Y-71175000D03*
X133600000Y-71175000D03*
D16*
X131050000Y-78650000D03*
X129950000Y-78650000D03*
X128850000Y-78650000D03*
X132150000Y-78650000D03*
X133250000Y-78650000D03*
X134350000Y-78650000D03*
X131025000Y-77320000D03*
X131025000Y-76170000D03*
X131025000Y-75020000D03*
X131025000Y-73870000D03*
X132175000Y-77320000D03*
X132175000Y-76170000D03*
X132175000Y-75020000D03*
X132175000Y-73870000D03*
X129875000Y-76170000D03*
X129875000Y-73870000D03*
X133325000Y-76170000D03*
X133325000Y-73870000D03*
D12*
G36*
X130552122Y-85264042D02*
G01*
X130561829Y-85265481D01*
X130571348Y-85267866D01*
X130580588Y-85271172D01*
X130589460Y-85275368D01*
X130597877Y-85280413D01*
X130605759Y-85286259D01*
X130613031Y-85292849D01*
X130619621Y-85300121D01*
X130625467Y-85308003D01*
X130630512Y-85316420D01*
X130634708Y-85325292D01*
X130638014Y-85334532D01*
X130640399Y-85344051D01*
X130641838Y-85353758D01*
X130642320Y-85363560D01*
X130642320Y-85563560D01*
X130641838Y-85573362D01*
X130640399Y-85583069D01*
X130638014Y-85592588D01*
X130634708Y-85601828D01*
X130630512Y-85610700D01*
X130625467Y-85619117D01*
X130619621Y-85626999D01*
X130613031Y-85634271D01*
X130605759Y-85640861D01*
X130597877Y-85646707D01*
X130589460Y-85651752D01*
X130580588Y-85655948D01*
X130571348Y-85659254D01*
X130561829Y-85661639D01*
X130552122Y-85663078D01*
X130542320Y-85663560D01*
X129942320Y-85663560D01*
X129932518Y-85663078D01*
X129922811Y-85661639D01*
X129913292Y-85659254D01*
X129904052Y-85655948D01*
X129895180Y-85651752D01*
X129886763Y-85646707D01*
X129878881Y-85640861D01*
X129871609Y-85634271D01*
X129865019Y-85626999D01*
X129859173Y-85619117D01*
X129854128Y-85610700D01*
X129849932Y-85601828D01*
X129846626Y-85592588D01*
X129844241Y-85583069D01*
X129842802Y-85573362D01*
X129842320Y-85563560D01*
X129842320Y-85363560D01*
X129842802Y-85353758D01*
X129844241Y-85344051D01*
X129846626Y-85334532D01*
X129849932Y-85325292D01*
X129854128Y-85316420D01*
X129859173Y-85308003D01*
X129865019Y-85300121D01*
X129871609Y-85292849D01*
X129878881Y-85286259D01*
X129886763Y-85280413D01*
X129895180Y-85275368D01*
X129904052Y-85271172D01*
X129913292Y-85267866D01*
X129922811Y-85265481D01*
X129932518Y-85264042D01*
X129942320Y-85263560D01*
X130542320Y-85263560D01*
X130552122Y-85264042D01*
G37*
G36*
X130552122Y-86264042D02*
G01*
X130561829Y-86265481D01*
X130571348Y-86267866D01*
X130580588Y-86271172D01*
X130589460Y-86275368D01*
X130597877Y-86280413D01*
X130605759Y-86286259D01*
X130613031Y-86292849D01*
X130619621Y-86300121D01*
X130625467Y-86308003D01*
X130630512Y-86316420D01*
X130634708Y-86325292D01*
X130638014Y-86334532D01*
X130640399Y-86344051D01*
X130641838Y-86353758D01*
X130642320Y-86363560D01*
X130642320Y-86563560D01*
X130641838Y-86573362D01*
X130640399Y-86583069D01*
X130638014Y-86592588D01*
X130634708Y-86601828D01*
X130630512Y-86610700D01*
X130625467Y-86619117D01*
X130619621Y-86626999D01*
X130613031Y-86634271D01*
X130605759Y-86640861D01*
X130597877Y-86646707D01*
X130589460Y-86651752D01*
X130580588Y-86655948D01*
X130571348Y-86659254D01*
X130561829Y-86661639D01*
X130552122Y-86663078D01*
X130542320Y-86663560D01*
X129942320Y-86663560D01*
X129932518Y-86663078D01*
X129922811Y-86661639D01*
X129913292Y-86659254D01*
X129904052Y-86655948D01*
X129895180Y-86651752D01*
X129886763Y-86646707D01*
X129878881Y-86640861D01*
X129871609Y-86634271D01*
X129865019Y-86626999D01*
X129859173Y-86619117D01*
X129854128Y-86610700D01*
X129849932Y-86601828D01*
X129846626Y-86592588D01*
X129844241Y-86583069D01*
X129842802Y-86573362D01*
X129842320Y-86563560D01*
X129842320Y-86363560D01*
X129842802Y-86353758D01*
X129844241Y-86344051D01*
X129846626Y-86334532D01*
X129849932Y-86325292D01*
X129854128Y-86316420D01*
X129859173Y-86308003D01*
X129865019Y-86300121D01*
X129871609Y-86292849D01*
X129878881Y-86286259D01*
X129886763Y-86280413D01*
X129895180Y-86275368D01*
X129904052Y-86271172D01*
X129913292Y-86267866D01*
X129922811Y-86265481D01*
X129932518Y-86264042D01*
X129942320Y-86263560D01*
X130542320Y-86263560D01*
X130552122Y-86264042D01*
G37*
G36*
X130552122Y-87264042D02*
G01*
X130561829Y-87265481D01*
X130571348Y-87267866D01*
X130580588Y-87271172D01*
X130589460Y-87275368D01*
X130597877Y-87280413D01*
X130605759Y-87286259D01*
X130613031Y-87292849D01*
X130619621Y-87300121D01*
X130625467Y-87308003D01*
X130630512Y-87316420D01*
X130634708Y-87325292D01*
X130638014Y-87334532D01*
X130640399Y-87344051D01*
X130641838Y-87353758D01*
X130642320Y-87363560D01*
X130642320Y-87563560D01*
X130641838Y-87573362D01*
X130640399Y-87583069D01*
X130638014Y-87592588D01*
X130634708Y-87601828D01*
X130630512Y-87610700D01*
X130625467Y-87619117D01*
X130619621Y-87626999D01*
X130613031Y-87634271D01*
X130605759Y-87640861D01*
X130597877Y-87646707D01*
X130589460Y-87651752D01*
X130580588Y-87655948D01*
X130571348Y-87659254D01*
X130561829Y-87661639D01*
X130552122Y-87663078D01*
X130542320Y-87663560D01*
X129942320Y-87663560D01*
X129932518Y-87663078D01*
X129922811Y-87661639D01*
X129913292Y-87659254D01*
X129904052Y-87655948D01*
X129895180Y-87651752D01*
X129886763Y-87646707D01*
X129878881Y-87640861D01*
X129871609Y-87634271D01*
X129865019Y-87626999D01*
X129859173Y-87619117D01*
X129854128Y-87610700D01*
X129849932Y-87601828D01*
X129846626Y-87592588D01*
X129844241Y-87583069D01*
X129842802Y-87573362D01*
X129842320Y-87563560D01*
X129842320Y-87363560D01*
X129842802Y-87353758D01*
X129844241Y-87344051D01*
X129846626Y-87334532D01*
X129849932Y-87325292D01*
X129854128Y-87316420D01*
X129859173Y-87308003D01*
X129865019Y-87300121D01*
X129871609Y-87292849D01*
X129878881Y-87286259D01*
X129886763Y-87280413D01*
X129895180Y-87275368D01*
X129904052Y-87271172D01*
X129913292Y-87267866D01*
X129922811Y-87265481D01*
X129932518Y-87264042D01*
X129942320Y-87263560D01*
X130542320Y-87263560D01*
X130552122Y-87264042D01*
G37*
G36*
X133452122Y-87264042D02*
G01*
X133461829Y-87265481D01*
X133471348Y-87267866D01*
X133480588Y-87271172D01*
X133489460Y-87275368D01*
X133497877Y-87280413D01*
X133505759Y-87286259D01*
X133513031Y-87292849D01*
X133519621Y-87300121D01*
X133525467Y-87308003D01*
X133530512Y-87316420D01*
X133534708Y-87325292D01*
X133538014Y-87334532D01*
X133540399Y-87344051D01*
X133541838Y-87353758D01*
X133542320Y-87363560D01*
X133542320Y-87563560D01*
X133541838Y-87573362D01*
X133540399Y-87583069D01*
X133538014Y-87592588D01*
X133534708Y-87601828D01*
X133530512Y-87610700D01*
X133525467Y-87619117D01*
X133519621Y-87626999D01*
X133513031Y-87634271D01*
X133505759Y-87640861D01*
X133497877Y-87646707D01*
X133489460Y-87651752D01*
X133480588Y-87655948D01*
X133471348Y-87659254D01*
X133461829Y-87661639D01*
X133452122Y-87663078D01*
X133442320Y-87663560D01*
X132842320Y-87663560D01*
X132832518Y-87663078D01*
X132822811Y-87661639D01*
X132813292Y-87659254D01*
X132804052Y-87655948D01*
X132795180Y-87651752D01*
X132786763Y-87646707D01*
X132778881Y-87640861D01*
X132771609Y-87634271D01*
X132765019Y-87626999D01*
X132759173Y-87619117D01*
X132754128Y-87610700D01*
X132749932Y-87601828D01*
X132746626Y-87592588D01*
X132744241Y-87583069D01*
X132742802Y-87573362D01*
X132742320Y-87563560D01*
X132742320Y-87363560D01*
X132742802Y-87353758D01*
X132744241Y-87344051D01*
X132746626Y-87334532D01*
X132749932Y-87325292D01*
X132754128Y-87316420D01*
X132759173Y-87308003D01*
X132765019Y-87300121D01*
X132771609Y-87292849D01*
X132778881Y-87286259D01*
X132786763Y-87280413D01*
X132795180Y-87275368D01*
X132804052Y-87271172D01*
X132813292Y-87267866D01*
X132822811Y-87265481D01*
X132832518Y-87264042D01*
X132842320Y-87263560D01*
X133442320Y-87263560D01*
X133452122Y-87264042D01*
G37*
G36*
X133452122Y-86264042D02*
G01*
X133461829Y-86265481D01*
X133471348Y-86267866D01*
X133480588Y-86271172D01*
X133489460Y-86275368D01*
X133497877Y-86280413D01*
X133505759Y-86286259D01*
X133513031Y-86292849D01*
X133519621Y-86300121D01*
X133525467Y-86308003D01*
X133530512Y-86316420D01*
X133534708Y-86325292D01*
X133538014Y-86334532D01*
X133540399Y-86344051D01*
X133541838Y-86353758D01*
X133542320Y-86363560D01*
X133542320Y-86563560D01*
X133541838Y-86573362D01*
X133540399Y-86583069D01*
X133538014Y-86592588D01*
X133534708Y-86601828D01*
X133530512Y-86610700D01*
X133525467Y-86619117D01*
X133519621Y-86626999D01*
X133513031Y-86634271D01*
X133505759Y-86640861D01*
X133497877Y-86646707D01*
X133489460Y-86651752D01*
X133480588Y-86655948D01*
X133471348Y-86659254D01*
X133461829Y-86661639D01*
X133452122Y-86663078D01*
X133442320Y-86663560D01*
X132842320Y-86663560D01*
X132832518Y-86663078D01*
X132822811Y-86661639D01*
X132813292Y-86659254D01*
X132804052Y-86655948D01*
X132795180Y-86651752D01*
X132786763Y-86646707D01*
X132778881Y-86640861D01*
X132771609Y-86634271D01*
X132765019Y-86626999D01*
X132759173Y-86619117D01*
X132754128Y-86610700D01*
X132749932Y-86601828D01*
X132746626Y-86592588D01*
X132744241Y-86583069D01*
X132742802Y-86573362D01*
X132742320Y-86563560D01*
X132742320Y-86363560D01*
X132742802Y-86353758D01*
X132744241Y-86344051D01*
X132746626Y-86334532D01*
X132749932Y-86325292D01*
X132754128Y-86316420D01*
X132759173Y-86308003D01*
X132765019Y-86300121D01*
X132771609Y-86292849D01*
X132778881Y-86286259D01*
X132786763Y-86280413D01*
X132795180Y-86275368D01*
X132804052Y-86271172D01*
X132813292Y-86267866D01*
X132822811Y-86265481D01*
X132832518Y-86264042D01*
X132842320Y-86263560D01*
X133442320Y-86263560D01*
X133452122Y-86264042D01*
G37*
G36*
X133452122Y-85264042D02*
G01*
X133461829Y-85265481D01*
X133471348Y-85267866D01*
X133480588Y-85271172D01*
X133489460Y-85275368D01*
X133497877Y-85280413D01*
X133505759Y-85286259D01*
X133513031Y-85292849D01*
X133519621Y-85300121D01*
X133525467Y-85308003D01*
X133530512Y-85316420D01*
X133534708Y-85325292D01*
X133538014Y-85334532D01*
X133540399Y-85344051D01*
X133541838Y-85353758D01*
X133542320Y-85363560D01*
X133542320Y-85563560D01*
X133541838Y-85573362D01*
X133540399Y-85583069D01*
X133538014Y-85592588D01*
X133534708Y-85601828D01*
X133530512Y-85610700D01*
X133525467Y-85619117D01*
X133519621Y-85626999D01*
X133513031Y-85634271D01*
X133505759Y-85640861D01*
X133497877Y-85646707D01*
X133489460Y-85651752D01*
X133480588Y-85655948D01*
X133471348Y-85659254D01*
X133461829Y-85661639D01*
X133452122Y-85663078D01*
X133442320Y-85663560D01*
X132842320Y-85663560D01*
X132832518Y-85663078D01*
X132822811Y-85661639D01*
X132813292Y-85659254D01*
X132804052Y-85655948D01*
X132795180Y-85651752D01*
X132786763Y-85646707D01*
X132778881Y-85640861D01*
X132771609Y-85634271D01*
X132765019Y-85626999D01*
X132759173Y-85619117D01*
X132754128Y-85610700D01*
X132749932Y-85601828D01*
X132746626Y-85592588D01*
X132744241Y-85583069D01*
X132742802Y-85573362D01*
X132742320Y-85563560D01*
X132742320Y-85363560D01*
X132742802Y-85353758D01*
X132744241Y-85344051D01*
X132746626Y-85334532D01*
X132749932Y-85325292D01*
X132754128Y-85316420D01*
X132759173Y-85308003D01*
X132765019Y-85300121D01*
X132771609Y-85292849D01*
X132778881Y-85286259D01*
X132786763Y-85280413D01*
X132795180Y-85275368D01*
X132804052Y-85271172D01*
X132813292Y-85267866D01*
X132822811Y-85265481D01*
X132832518Y-85264042D01*
X132842320Y-85263560D01*
X133442320Y-85263560D01*
X133452122Y-85264042D01*
G37*
G36*
X131482023Y-85379282D02*
G01*
X131496584Y-85381442D01*
X131510863Y-85385019D01*
X131524723Y-85389978D01*
X131538030Y-85396272D01*
X131550656Y-85403840D01*
X131562479Y-85412608D01*
X131573386Y-85422494D01*
X131583272Y-85433401D01*
X131592040Y-85445224D01*
X131599608Y-85457850D01*
X131605902Y-85471157D01*
X131610861Y-85485017D01*
X131614438Y-85499296D01*
X131616598Y-85513857D01*
X131617320Y-85528560D01*
X131617320Y-86198560D01*
X131616598Y-86213263D01*
X131614438Y-86227824D01*
X131610861Y-86242103D01*
X131605902Y-86255963D01*
X131599608Y-86269270D01*
X131592040Y-86281896D01*
X131583272Y-86293719D01*
X131573386Y-86304626D01*
X131562479Y-86314512D01*
X131550656Y-86323280D01*
X131538030Y-86330848D01*
X131524723Y-86337142D01*
X131510863Y-86342101D01*
X131496584Y-86345678D01*
X131482023Y-86347838D01*
X131467320Y-86348560D01*
X131167320Y-86348560D01*
X131152617Y-86347838D01*
X131138056Y-86345678D01*
X131123777Y-86342101D01*
X131109917Y-86337142D01*
X131096610Y-86330848D01*
X131083984Y-86323280D01*
X131072161Y-86314512D01*
X131061254Y-86304626D01*
X131051368Y-86293719D01*
X131042600Y-86281896D01*
X131035032Y-86269270D01*
X131028738Y-86255963D01*
X131023779Y-86242103D01*
X131020202Y-86227824D01*
X131018042Y-86213263D01*
X131017320Y-86198560D01*
X131017320Y-85528560D01*
X131018042Y-85513857D01*
X131020202Y-85499296D01*
X131023779Y-85485017D01*
X131028738Y-85471157D01*
X131035032Y-85457850D01*
X131042600Y-85445224D01*
X131051368Y-85433401D01*
X131061254Y-85422494D01*
X131072161Y-85412608D01*
X131083984Y-85403840D01*
X131096610Y-85396272D01*
X131109917Y-85389978D01*
X131123777Y-85385019D01*
X131138056Y-85381442D01*
X131152617Y-85379282D01*
X131167320Y-85378560D01*
X131467320Y-85378560D01*
X131482023Y-85379282D01*
G37*
G36*
X131482023Y-86579282D02*
G01*
X131496584Y-86581442D01*
X131510863Y-86585019D01*
X131524723Y-86589978D01*
X131538030Y-86596272D01*
X131550656Y-86603840D01*
X131562479Y-86612608D01*
X131573386Y-86622494D01*
X131583272Y-86633401D01*
X131592040Y-86645224D01*
X131599608Y-86657850D01*
X131605902Y-86671157D01*
X131610861Y-86685017D01*
X131614438Y-86699296D01*
X131616598Y-86713857D01*
X131617320Y-86728560D01*
X131617320Y-87398560D01*
X131616598Y-87413263D01*
X131614438Y-87427824D01*
X131610861Y-87442103D01*
X131605902Y-87455963D01*
X131599608Y-87469270D01*
X131592040Y-87481896D01*
X131583272Y-87493719D01*
X131573386Y-87504626D01*
X131562479Y-87514512D01*
X131550656Y-87523280D01*
X131538030Y-87530848D01*
X131524723Y-87537142D01*
X131510863Y-87542101D01*
X131496584Y-87545678D01*
X131482023Y-87547838D01*
X131467320Y-87548560D01*
X131167320Y-87548560D01*
X131152617Y-87547838D01*
X131138056Y-87545678D01*
X131123777Y-87542101D01*
X131109917Y-87537142D01*
X131096610Y-87530848D01*
X131083984Y-87523280D01*
X131072161Y-87514512D01*
X131061254Y-87504626D01*
X131051368Y-87493719D01*
X131042600Y-87481896D01*
X131035032Y-87469270D01*
X131028738Y-87455963D01*
X131023779Y-87442103D01*
X131020202Y-87427824D01*
X131018042Y-87413263D01*
X131017320Y-87398560D01*
X131017320Y-86728560D01*
X131018042Y-86713857D01*
X131020202Y-86699296D01*
X131023779Y-86685017D01*
X131028738Y-86671157D01*
X131035032Y-86657850D01*
X131042600Y-86645224D01*
X131051368Y-86633401D01*
X131061254Y-86622494D01*
X131072161Y-86612608D01*
X131083984Y-86603840D01*
X131096610Y-86596272D01*
X131109917Y-86589978D01*
X131123777Y-86585019D01*
X131138056Y-86581442D01*
X131152617Y-86579282D01*
X131167320Y-86578560D01*
X131467320Y-86578560D01*
X131482023Y-86579282D01*
G37*
G36*
X132232023Y-85379282D02*
G01*
X132246584Y-85381442D01*
X132260863Y-85385019D01*
X132274723Y-85389978D01*
X132288030Y-85396272D01*
X132300656Y-85403840D01*
X132312479Y-85412608D01*
X132323386Y-85422494D01*
X132333272Y-85433401D01*
X132342040Y-85445224D01*
X132349608Y-85457850D01*
X132355902Y-85471157D01*
X132360861Y-85485017D01*
X132364438Y-85499296D01*
X132366598Y-85513857D01*
X132367320Y-85528560D01*
X132367320Y-86198560D01*
X132366598Y-86213263D01*
X132364438Y-86227824D01*
X132360861Y-86242103D01*
X132355902Y-86255963D01*
X132349608Y-86269270D01*
X132342040Y-86281896D01*
X132333272Y-86293719D01*
X132323386Y-86304626D01*
X132312479Y-86314512D01*
X132300656Y-86323280D01*
X132288030Y-86330848D01*
X132274723Y-86337142D01*
X132260863Y-86342101D01*
X132246584Y-86345678D01*
X132232023Y-86347838D01*
X132217320Y-86348560D01*
X131917320Y-86348560D01*
X131902617Y-86347838D01*
X131888056Y-86345678D01*
X131873777Y-86342101D01*
X131859917Y-86337142D01*
X131846610Y-86330848D01*
X131833984Y-86323280D01*
X131822161Y-86314512D01*
X131811254Y-86304626D01*
X131801368Y-86293719D01*
X131792600Y-86281896D01*
X131785032Y-86269270D01*
X131778738Y-86255963D01*
X131773779Y-86242103D01*
X131770202Y-86227824D01*
X131768042Y-86213263D01*
X131767320Y-86198560D01*
X131767320Y-85528560D01*
X131768042Y-85513857D01*
X131770202Y-85499296D01*
X131773779Y-85485017D01*
X131778738Y-85471157D01*
X131785032Y-85457850D01*
X131792600Y-85445224D01*
X131801368Y-85433401D01*
X131811254Y-85422494D01*
X131822161Y-85412608D01*
X131833984Y-85403840D01*
X131846610Y-85396272D01*
X131859917Y-85389978D01*
X131873777Y-85385019D01*
X131888056Y-85381442D01*
X131902617Y-85379282D01*
X131917320Y-85378560D01*
X132217320Y-85378560D01*
X132232023Y-85379282D01*
G37*
G36*
X132232023Y-86579282D02*
G01*
X132246584Y-86581442D01*
X132260863Y-86585019D01*
X132274723Y-86589978D01*
X132288030Y-86596272D01*
X132300656Y-86603840D01*
X132312479Y-86612608D01*
X132323386Y-86622494D01*
X132333272Y-86633401D01*
X132342040Y-86645224D01*
X132349608Y-86657850D01*
X132355902Y-86671157D01*
X132360861Y-86685017D01*
X132364438Y-86699296D01*
X132366598Y-86713857D01*
X132367320Y-86728560D01*
X132367320Y-87398560D01*
X132366598Y-87413263D01*
X132364438Y-87427824D01*
X132360861Y-87442103D01*
X132355902Y-87455963D01*
X132349608Y-87469270D01*
X132342040Y-87481896D01*
X132333272Y-87493719D01*
X132323386Y-87504626D01*
X132312479Y-87514512D01*
X132300656Y-87523280D01*
X132288030Y-87530848D01*
X132274723Y-87537142D01*
X132260863Y-87542101D01*
X132246584Y-87545678D01*
X132232023Y-87547838D01*
X132217320Y-87548560D01*
X131917320Y-87548560D01*
X131902617Y-87547838D01*
X131888056Y-87545678D01*
X131873777Y-87542101D01*
X131859917Y-87537142D01*
X131846610Y-87530848D01*
X131833984Y-87523280D01*
X131822161Y-87514512D01*
X131811254Y-87504626D01*
X131801368Y-87493719D01*
X131792600Y-87481896D01*
X131785032Y-87469270D01*
X131778738Y-87455963D01*
X131773779Y-87442103D01*
X131770202Y-87427824D01*
X131768042Y-87413263D01*
X131767320Y-87398560D01*
X131767320Y-86728560D01*
X131768042Y-86713857D01*
X131770202Y-86699296D01*
X131773779Y-86685017D01*
X131778738Y-86671157D01*
X131785032Y-86657850D01*
X131792600Y-86645224D01*
X131801368Y-86633401D01*
X131811254Y-86622494D01*
X131822161Y-86612608D01*
X131833984Y-86603840D01*
X131846610Y-86596272D01*
X131859917Y-86589978D01*
X131873777Y-86585019D01*
X131888056Y-86581442D01*
X131902617Y-86579282D01*
X131917320Y-86578560D01*
X132217320Y-86578560D01*
X132232023Y-86579282D01*
G37*
G36*
X138776958Y-121480710D02*
G01*
X138791276Y-121482834D01*
X138805317Y-121486351D01*
X138818946Y-121491228D01*
X138832031Y-121497417D01*
X138844447Y-121504858D01*
X138856073Y-121513481D01*
X138866798Y-121523202D01*
X138876519Y-121533927D01*
X138885142Y-121545553D01*
X138892583Y-121557969D01*
X138898772Y-121571054D01*
X138903649Y-121584683D01*
X138907166Y-121598724D01*
X138909290Y-121613042D01*
X138910000Y-121627500D01*
X138910000Y-121972500D01*
X138909290Y-121986958D01*
X138907166Y-122001276D01*
X138903649Y-122015317D01*
X138898772Y-122028946D01*
X138892583Y-122042031D01*
X138885142Y-122054447D01*
X138876519Y-122066073D01*
X138866798Y-122076798D01*
X138856073Y-122086519D01*
X138844447Y-122095142D01*
X138832031Y-122102583D01*
X138818946Y-122108772D01*
X138805317Y-122113649D01*
X138791276Y-122117166D01*
X138776958Y-122119290D01*
X138762500Y-122120000D01*
X138467500Y-122120000D01*
X138453042Y-122119290D01*
X138438724Y-122117166D01*
X138424683Y-122113649D01*
X138411054Y-122108772D01*
X138397969Y-122102583D01*
X138385553Y-122095142D01*
X138373927Y-122086519D01*
X138363202Y-122076798D01*
X138353481Y-122066073D01*
X138344858Y-122054447D01*
X138337417Y-122042031D01*
X138331228Y-122028946D01*
X138326351Y-122015317D01*
X138322834Y-122001276D01*
X138320710Y-121986958D01*
X138320000Y-121972500D01*
X138320000Y-121627500D01*
X138320710Y-121613042D01*
X138322834Y-121598724D01*
X138326351Y-121584683D01*
X138331228Y-121571054D01*
X138337417Y-121557969D01*
X138344858Y-121545553D01*
X138353481Y-121533927D01*
X138363202Y-121523202D01*
X138373927Y-121513481D01*
X138385553Y-121504858D01*
X138397969Y-121497417D01*
X138411054Y-121491228D01*
X138424683Y-121486351D01*
X138438724Y-121482834D01*
X138453042Y-121480710D01*
X138467500Y-121480000D01*
X138762500Y-121480000D01*
X138776958Y-121480710D01*
G37*
G36*
X139746958Y-121480710D02*
G01*
X139761276Y-121482834D01*
X139775317Y-121486351D01*
X139788946Y-121491228D01*
X139802031Y-121497417D01*
X139814447Y-121504858D01*
X139826073Y-121513481D01*
X139836798Y-121523202D01*
X139846519Y-121533927D01*
X139855142Y-121545553D01*
X139862583Y-121557969D01*
X139868772Y-121571054D01*
X139873649Y-121584683D01*
X139877166Y-121598724D01*
X139879290Y-121613042D01*
X139880000Y-121627500D01*
X139880000Y-121972500D01*
X139879290Y-121986958D01*
X139877166Y-122001276D01*
X139873649Y-122015317D01*
X139868772Y-122028946D01*
X139862583Y-122042031D01*
X139855142Y-122054447D01*
X139846519Y-122066073D01*
X139836798Y-122076798D01*
X139826073Y-122086519D01*
X139814447Y-122095142D01*
X139802031Y-122102583D01*
X139788946Y-122108772D01*
X139775317Y-122113649D01*
X139761276Y-122117166D01*
X139746958Y-122119290D01*
X139732500Y-122120000D01*
X139437500Y-122120000D01*
X139423042Y-122119290D01*
X139408724Y-122117166D01*
X139394683Y-122113649D01*
X139381054Y-122108772D01*
X139367969Y-122102583D01*
X139355553Y-122095142D01*
X139343927Y-122086519D01*
X139333202Y-122076798D01*
X139323481Y-122066073D01*
X139314858Y-122054447D01*
X139307417Y-122042031D01*
X139301228Y-122028946D01*
X139296351Y-122015317D01*
X139292834Y-122001276D01*
X139290710Y-121986958D01*
X139290000Y-121972500D01*
X139290000Y-121627500D01*
X139290710Y-121613042D01*
X139292834Y-121598724D01*
X139296351Y-121584683D01*
X139301228Y-121571054D01*
X139307417Y-121557969D01*
X139314858Y-121545553D01*
X139323481Y-121533927D01*
X139333202Y-121523202D01*
X139343927Y-121513481D01*
X139355553Y-121504858D01*
X139367969Y-121497417D01*
X139381054Y-121491228D01*
X139394683Y-121486351D01*
X139408724Y-121482834D01*
X139423042Y-121480710D01*
X139437500Y-121480000D01*
X139732500Y-121480000D01*
X139746958Y-121480710D01*
G37*
M02*
