M48
; DRILL file {KiCad 5.1.5-52549c5~84~ubuntu18.04.1} date Di 19 Nov 2019 18:32:20 CET
; FORMAT={-:-/ absolute / inch / decimal}
; #@! TF.CreationDate,2019-11-19T18:32:20+01:00
; #@! TF.GenerationSoftware,Kicad,Pcbnew,5.1.5-52549c5~84~ubuntu18.04.1
; #@! TF.FileFunction,Plated,1,2,PTH
FMAT,2
INCH
T1C0.0157
T2C0.0315
T3C0.0394
%
G90
G05
T1
X5.0187Y-3.2662
X5.0236Y-3.3976
X5.0433Y-3.6299
X5.0591Y-3.2323
X5.063Y-2.7992
X5.063Y-2.8386
X5.063Y-2.878
X5.063Y-2.9173
X5.063Y-2.9961
X5.065Y-3.1654
X5.0709Y-3.0472
X5.1102Y-2.9567
X5.1102Y-3.2638
X5.1142Y-3.0512
X5.1811Y-4.4606
X5.185Y-3.7795
X5.185Y-4.2953
X5.2008Y-3.2913
X5.2047Y-3.2283
X5.252Y-3.7598
X5.2795Y-3.8976
X5.2835Y-2.9528
X5.2835Y-4.2953
X5.2874Y-3.6024
X5.311Y-3.1929
X5.3307Y-3.7441
X5.3504Y-3.2362
X5.3504Y-4.0787
X5.3848Y-2.9488
X5.3898Y-4.2953
X5.3937Y-2.8346
X5.5354Y-4.7323
T2
X4.6338Y-3.2094
X4.6338Y-3.3094
X4.7338Y-3.2594
X4.7338Y-3.3594
X5.6226Y-3.5508
X5.6226Y-3.6508
X5.7226Y-3.6008
X5.7226Y-3.7008
X5.6226Y-4.2336
X5.6226Y-4.3336
X5.7226Y-4.2836
X5.7226Y-4.3836
X4.634Y-3.892
X4.634Y-3.992
X4.734Y-3.942
X4.734Y-4.042
X4.634Y-4.575
X4.634Y-4.675
X4.734Y-4.625
X4.734Y-4.725
X4.6344Y-2.8676
X4.6344Y-2.9676
X4.7344Y-2.9176
X4.7344Y-3.0176
X5.6226Y-2.8678
X5.6226Y-2.9678
X5.7226Y-2.9178
X5.7226Y-3.0178
X5.6234Y-4.575
X5.6234Y-4.675
X5.7234Y-4.625
X5.7234Y-4.725
X4.6338Y-3.5504
X4.6338Y-3.6504
X4.7338Y-3.6004
X4.7338Y-3.7004
X4.634Y-4.2334
X4.634Y-4.3334
X4.734Y-4.2834
X4.734Y-4.3834
X5.6226Y-3.2094
X5.6226Y-3.3094
X5.7226Y-3.2594
X5.7226Y-3.3594
X5.6226Y-3.8922
X5.6226Y-3.9922
X5.7226Y-3.9422
X5.7226Y-4.0422
T3
X4.8819Y-2.8425
X4.8819Y-2.9425
X4.8819Y-3.0425
X4.8819Y-3.1425
X4.8819Y-3.2425
X4.8819Y-3.3425
X4.8819Y-3.4425
X4.8819Y-3.5425
X4.8819Y-3.6425
X4.8819Y-3.7425
X4.8819Y-3.8425
X4.8819Y-3.9425
X4.8819Y-4.0425
X4.8819Y-4.1425
X4.8819Y-4.2425
X5.4803Y-2.8425
X5.4803Y-2.9425
X5.4803Y-3.0425
X5.4803Y-3.1425
X5.4803Y-3.2425
X5.4803Y-3.3425
X5.4803Y-3.4425
X5.4803Y-3.5425
X5.4803Y-3.6425
X5.4803Y-3.7425
X5.4803Y-3.8425
X5.4803Y-3.9425
X5.4803Y-4.0425
X5.4803Y-4.1425
X5.4803Y-4.2425
T0
M30
